<mxfile host="Electron" modified="2024-02-15T21:15:15.261Z" agent="Mozilla/5.0 (Windows NT 10.0; Win64; x64) AppleWebKit/537.36 (KHTML, like Gecko) draw.io/22.1.21 Chrome/120.0.6099.109 Electron/28.1.0 Safari/537.36" etag="gWyKsK9ZmtV8bJRFKBsZ" version="22.1.21" type="device">
  <diagram name="PÃ¡gina-1" id="2FWjDxMUFz0WJLKJqSFN">
    <mxGraphModel dx="1290" dy="610" grid="1" gridSize="10" guides="1" tooltips="1" connect="1" arrows="1" fold="1" page="1" pageScale="1" pageWidth="827" pageHeight="1169" math="0" shadow="0">
      <root>
        <mxCell id="0" />
        <mxCell id="1" parent="0" />
        <mxCell id="Melu5-ksbf7xbnoA28rR-1" value="" style="swimlane;startSize=0;" parent="1" vertex="1">
          <mxGeometry x="120" y="130" width="200" height="200" as="geometry">
            <mxRectangle x="120" y="130" width="50" height="40" as="alternateBounds" />
          </mxGeometry>
        </mxCell>
        <mxCell id="Melu5-ksbf7xbnoA28rR-2" style="edgeStyle=orthogonalEdgeStyle;rounded=0;orthogonalLoop=1;jettySize=auto;html=1;" parent="Melu5-ksbf7xbnoA28rR-1" target="Melu5-ksbf7xbnoA28rR-3" edge="1">
          <mxGeometry relative="1" as="geometry">
            <mxPoint x="100" y="-70" as="sourcePoint" />
          </mxGeometry>
        </mxCell>
        <mxCell id="Melu5-ksbf7xbnoA28rR-3" value="D" style="text;html=1;align=center;verticalAlign=middle;resizable=0;points=[];autosize=1;strokeColor=none;fillColor=none;rounded=0;fontStyle=1" parent="Melu5-ksbf7xbnoA28rR-1" vertex="1">
          <mxGeometry x="85" width="30" height="30" as="geometry" />
        </mxCell>
        <mxCell id="Melu5-ksbf7xbnoA28rR-5" value="Q" style="text;html=1;strokeColor=none;fillColor=none;align=center;verticalAlign=middle;whiteSpace=wrap;rounded=0;fontStyle=1" parent="Melu5-ksbf7xbnoA28rR-1" vertex="1">
          <mxGeometry x="140" y="40" width="60" height="30" as="geometry" />
        </mxCell>
        <mxCell id="Melu5-ksbf7xbnoA28rR-37" style="edgeStyle=orthogonalEdgeStyle;rounded=0;orthogonalLoop=1;jettySize=auto;html=1;" parent="Melu5-ksbf7xbnoA28rR-1" source="Melu5-ksbf7xbnoA28rR-6" edge="1">
          <mxGeometry relative="1" as="geometry">
            <mxPoint x="250" y="145" as="targetPoint" />
          </mxGeometry>
        </mxCell>
        <mxCell id="Melu5-ksbf7xbnoA28rR-6" value="TC" style="text;html=1;strokeColor=none;fillColor=none;align=center;verticalAlign=middle;whiteSpace=wrap;rounded=0;fontStyle=1" parent="Melu5-ksbf7xbnoA28rR-1" vertex="1">
          <mxGeometry x="140" y="130" width="60" height="30" as="geometry" />
        </mxCell>
        <mxCell id="Melu5-ksbf7xbnoA28rR-7" style="edgeStyle=orthogonalEdgeStyle;rounded=0;orthogonalLoop=1;jettySize=auto;html=1;" parent="Melu5-ksbf7xbnoA28rR-1" target="Melu5-ksbf7xbnoA28rR-8" edge="1">
          <mxGeometry relative="1" as="geometry">
            <mxPoint x="100" y="250" as="sourcePoint" />
            <Array as="points">
              <mxPoint x="100" y="240" />
              <mxPoint x="100" y="240" />
            </Array>
          </mxGeometry>
        </mxCell>
        <mxCell id="Melu5-ksbf7xbnoA28rR-8" value="Reset" style="text;html=1;align=center;verticalAlign=middle;resizable=0;points=[];autosize=1;strokeColor=none;fillColor=none;fontStyle=1" parent="Melu5-ksbf7xbnoA28rR-1" vertex="1">
          <mxGeometry x="70" y="170" width="60" height="30" as="geometry" />
        </mxCell>
        <mxCell id="Melu5-ksbf7xbnoA28rR-9" style="edgeStyle=orthogonalEdgeStyle;rounded=0;orthogonalLoop=1;jettySize=auto;html=1;" parent="Melu5-ksbf7xbnoA28rR-1" target="Melu5-ksbf7xbnoA28rR-10" edge="1">
          <mxGeometry relative="1" as="geometry">
            <mxPoint x="-50" y="180" as="sourcePoint" />
            <Array as="points">
              <mxPoint x="-40" y="180" />
              <mxPoint x="-40" y="180" />
            </Array>
          </mxGeometry>
        </mxCell>
        <mxCell id="Melu5-ksbf7xbnoA28rR-10" value="" style="triangle;whiteSpace=wrap;html=1;" parent="Melu5-ksbf7xbnoA28rR-1" vertex="1">
          <mxGeometry y="160" width="30" height="40" as="geometry" />
        </mxCell>
        <mxCell id="Melu5-ksbf7xbnoA28rR-11" value="UP" style="text;html=1;strokeColor=none;fillColor=none;align=center;verticalAlign=middle;whiteSpace=wrap;rounded=0;fontStyle=1" parent="Melu5-ksbf7xbnoA28rR-1" vertex="1">
          <mxGeometry y="110" width="60" height="30" as="geometry" />
        </mxCell>
        <mxCell id="Melu5-ksbf7xbnoA28rR-12" value="LD" style="text;html=1;strokeColor=none;fillColor=none;align=center;verticalAlign=middle;whiteSpace=wrap;rounded=0;fontStyle=1" parent="Melu5-ksbf7xbnoA28rR-1" vertex="1">
          <mxGeometry y="40" width="60" height="30" as="geometry" />
        </mxCell>
        <mxCell id="Melu5-ksbf7xbnoA28rR-13" value="E" style="text;html=1;strokeColor=none;fillColor=none;align=center;verticalAlign=middle;whiteSpace=wrap;rounded=0;fontStyle=1" parent="Melu5-ksbf7xbnoA28rR-1" vertex="1">
          <mxGeometry y="70" width="60" height="30" as="geometry" />
        </mxCell>
        <mxCell id="Melu5-ksbf7xbnoA28rR-14" value="&lt;span style=&quot;font-size: 13px;&quot;&gt;&lt;b&gt;CONTADOR&lt;br&gt;&lt;/b&gt;&lt;/span&gt;&lt;b&gt;CURSOR_SOL&lt;/b&gt;" style="text;html=1;strokeColor=none;fillColor=none;align=center;verticalAlign=middle;whiteSpace=wrap;rounded=0;" parent="Melu5-ksbf7xbnoA28rR-1" vertex="1">
          <mxGeometry x="65" y="85" width="70" height="30" as="geometry" />
        </mxCell>
        <mxCell id="Melu5-ksbf7xbnoA28rR-15" value="" style="endArrow=none;html=1;rounded=0;" parent="Melu5-ksbf7xbnoA28rR-1" edge="1">
          <mxGeometry width="50" height="50" relative="1" as="geometry">
            <mxPoint x="95" y="-20" as="sourcePoint" />
            <mxPoint x="105" y="-40" as="targetPoint" />
          </mxGeometry>
        </mxCell>
        <mxCell id="Melu5-ksbf7xbnoA28rR-17" value="Clk" style="text;html=1;strokeColor=none;fillColor=none;align=center;verticalAlign=middle;whiteSpace=wrap;rounded=0;fontStyle=1" parent="1" vertex="1">
          <mxGeometry x="30" y="290" width="60" height="30" as="geometry" />
        </mxCell>
        <mxCell id="Melu5-ksbf7xbnoA28rR-19" value="&#39;0&#39;" style="text;html=1;strokeColor=none;fillColor=none;align=center;verticalAlign=middle;whiteSpace=wrap;rounded=0;" parent="1" vertex="1">
          <mxGeometry x="30" y="240" width="60" height="30" as="geometry" />
        </mxCell>
        <mxCell id="Melu5-ksbf7xbnoA28rR-20" value="99" style="text;html=1;strokeColor=none;fillColor=none;align=center;verticalAlign=middle;whiteSpace=wrap;rounded=0;fontStyle=1" parent="1" vertex="1">
          <mxGeometry x="190" y="30" width="80" height="30" as="geometry" />
        </mxCell>
        <mxCell id="Melu5-ksbf7xbnoA28rR-21" value="&lt;font color=&quot;#ff0000&quot;&gt;LD_CONT_SOL&lt;br&gt;&lt;/font&gt;" style="text;html=1;strokeColor=none;fillColor=none;align=center;verticalAlign=middle;whiteSpace=wrap;rounded=0;fontStyle=1" parent="1" vertex="1">
          <mxGeometry x="20" y="150" width="80" height="30" as="geometry" />
        </mxCell>
        <mxCell id="Melu5-ksbf7xbnoA28rR-22" value="&lt;span&gt;&lt;font color=&quot;#ff0000&quot;&gt;DECR_CONT_SOL&lt;/font&gt;&lt;/span&gt;" style="text;html=1;strokeColor=none;fillColor=none;align=center;verticalAlign=middle;whiteSpace=wrap;rounded=0;fontStyle=1" parent="1" vertex="1">
          <mxGeometry x="30" y="190" width="60" height="30" as="geometry" />
        </mxCell>
        <mxCell id="Melu5-ksbf7xbnoA28rR-23" value="&lt;b&gt;Reset_L*&lt;/b&gt;" style="text;html=1;strokeColor=none;fillColor=none;align=center;verticalAlign=middle;whiteSpace=wrap;rounded=0;" parent="1" vertex="1">
          <mxGeometry x="160" y="350" width="60" height="40" as="geometry" />
        </mxCell>
        <mxCell id="Melu5-ksbf7xbnoA28rR-24" value="" style="endArrow=none;html=1;rounded=0;" parent="1" edge="1">
          <mxGeometry width="50" height="50" relative="1" as="geometry">
            <mxPoint x="330" y="195" as="sourcePoint" />
            <mxPoint x="350" y="180" as="targetPoint" />
          </mxGeometry>
        </mxCell>
        <mxCell id="Melu5-ksbf7xbnoA28rR-25" value="8" style="text;html=1;strokeColor=none;fillColor=none;align=center;verticalAlign=middle;whiteSpace=wrap;rounded=0;" parent="1" vertex="1">
          <mxGeometry x="210" y="90" width="60" height="30" as="geometry" />
        </mxCell>
        <mxCell id="Melu5-ksbf7xbnoA28rR-26" value="8" style="text;html=1;strokeColor=none;fillColor=none;align=center;verticalAlign=middle;whiteSpace=wrap;rounded=0;" parent="1" vertex="1">
          <mxGeometry x="310" y="190" width="60" height="30" as="geometry" />
        </mxCell>
        <mxCell id="Melu5-ksbf7xbnoA28rR-27" style="edgeStyle=orthogonalEdgeStyle;rounded=0;orthogonalLoop=1;jettySize=auto;html=1;" parent="1" edge="1">
          <mxGeometry relative="1" as="geometry">
            <mxPoint x="70" y="254.88" as="sourcePoint" />
            <mxPoint x="120" y="254.88" as="targetPoint" />
            <Array as="points">
              <mxPoint x="80" y="254.88" />
              <mxPoint x="80" y="254.88" />
            </Array>
          </mxGeometry>
        </mxCell>
        <mxCell id="Melu5-ksbf7xbnoA28rR-28" style="edgeStyle=orthogonalEdgeStyle;rounded=0;orthogonalLoop=1;jettySize=auto;html=1;" parent="1" edge="1">
          <mxGeometry relative="1" as="geometry">
            <mxPoint x="70" y="219.76999999999998" as="sourcePoint" />
            <mxPoint x="120" y="219.76999999999998" as="targetPoint" />
            <Array as="points">
              <mxPoint x="80" y="219.76999999999998" />
              <mxPoint x="80" y="219.76999999999998" />
            </Array>
          </mxGeometry>
        </mxCell>
        <mxCell id="Melu5-ksbf7xbnoA28rR-29" style="edgeStyle=orthogonalEdgeStyle;rounded=0;orthogonalLoop=1;jettySize=auto;html=1;entryX=0;entryY=0.25;entryDx=0;entryDy=0;" parent="1" target="Melu5-ksbf7xbnoA28rR-12" edge="1">
          <mxGeometry relative="1" as="geometry">
            <mxPoint x="70" y="178" as="sourcePoint" />
            <mxPoint x="120" y="164.8" as="targetPoint" />
            <Array as="points">
              <mxPoint x="70" y="178" />
              <mxPoint x="100" y="178" />
            </Array>
          </mxGeometry>
        </mxCell>
        <mxCell id="Melu5-ksbf7xbnoA28rR-35" style="edgeStyle=orthogonalEdgeStyle;rounded=0;orthogonalLoop=1;jettySize=auto;html=1;" parent="1" source="Melu5-ksbf7xbnoA28rR-32" edge="1">
          <mxGeometry relative="1" as="geometry">
            <mxPoint x="590" y="205" as="targetPoint" />
          </mxGeometry>
        </mxCell>
        <mxCell id="Melu5-ksbf7xbnoA28rR-32" value="&lt;b&gt;RESTADOR&lt;/b&gt;" style="rounded=0;whiteSpace=wrap;html=1;" parent="1" vertex="1">
          <mxGeometry x="414" y="175" width="120" height="60" as="geometry" />
        </mxCell>
        <mxCell id="Melu5-ksbf7xbnoA28rR-4" style="edgeStyle=orthogonalEdgeStyle;rounded=0;orthogonalLoop=1;jettySize=auto;html=1;entryX=-0.013;entryY=0.168;entryDx=0;entryDy=0;entryPerimeter=0;" parent="1" source="Melu5-ksbf7xbnoA28rR-5" target="Melu5-ksbf7xbnoA28rR-32" edge="1">
          <mxGeometry relative="1" as="geometry">
            <mxPoint x="370" y="185" as="targetPoint" />
          </mxGeometry>
        </mxCell>
        <mxCell id="Melu5-ksbf7xbnoA28rR-33" value="" style="endArrow=classic;html=1;rounded=0;entryX=0;entryY=0.75;entryDx=0;entryDy=0;exitX=0.5;exitY=1;exitDx=0;exitDy=0;" parent="1" source="Melu5-ksbf7xbnoA28rR-34" target="Melu5-ksbf7xbnoA28rR-32" edge="1">
          <mxGeometry width="50" height="50" relative="1" as="geometry">
            <mxPoint x="390" y="220" as="sourcePoint" />
            <mxPoint x="390" y="130" as="targetPoint" />
          </mxGeometry>
        </mxCell>
        <mxCell id="Melu5-ksbf7xbnoA28rR-34" value="99" style="text;html=1;strokeColor=none;fillColor=none;align=center;verticalAlign=middle;whiteSpace=wrap;rounded=0;fontStyle=1" parent="1" vertex="1">
          <mxGeometry x="340" y="190" width="80" height="30" as="geometry" />
        </mxCell>
        <mxCell id="Melu5-ksbf7xbnoA28rR-36" value="&lt;b&gt;&lt;font color=&quot;#3333ff&quot;&gt;CURSOR_SOL&lt;/font&gt;&lt;/b&gt;" style="text;html=1;strokeColor=none;fillColor=none;align=center;verticalAlign=middle;whiteSpace=wrap;rounded=0;" parent="1" vertex="1">
          <mxGeometry x="570" y="175" width="60" height="30" as="geometry" />
        </mxCell>
        <mxCell id="Melu5-ksbf7xbnoA28rR-38" value="&lt;b&gt;&lt;font color=&quot;#3333ff&quot;&gt;END_SOL&lt;/font&gt;&lt;/b&gt;" style="text;html=1;align=center;verticalAlign=middle;resizable=0;points=[];autosize=1;strokeColor=none;fillColor=none;" parent="1" vertex="1">
          <mxGeometry x="320" y="248" width="80" height="30" as="geometry" />
        </mxCell>
        <mxCell id="Melu5-ksbf7xbnoA28rR-39" value="" style="swimlane;startSize=0;" parent="1" vertex="1">
          <mxGeometry x="113" y="425" width="173" height="120" as="geometry" />
        </mxCell>
        <mxCell id="Melu5-ksbf7xbnoA28rR-40" value="D" style="text;html=1;align=center;verticalAlign=middle;resizable=0;points=[];autosize=1;strokeColor=none;fillColor=none;rounded=0;fontStyle=1" parent="Melu5-ksbf7xbnoA28rR-39" vertex="1">
          <mxGeometry y="5" width="30" height="30" as="geometry" />
        </mxCell>
        <mxCell id="Melu5-ksbf7xbnoA28rR-41" style="edgeStyle=orthogonalEdgeStyle;rounded=0;orthogonalLoop=1;jettySize=auto;html=1;" parent="Melu5-ksbf7xbnoA28rR-39" source="Melu5-ksbf7xbnoA28rR-42" edge="1">
          <mxGeometry relative="1" as="geometry">
            <mxPoint x="223" y="20" as="targetPoint" />
          </mxGeometry>
        </mxCell>
        <mxCell id="Melu5-ksbf7xbnoA28rR-42" value="Q" style="text;html=1;strokeColor=none;fillColor=none;align=center;verticalAlign=middle;whiteSpace=wrap;rounded=0;fontStyle=1" parent="Melu5-ksbf7xbnoA28rR-39" vertex="1">
          <mxGeometry x="113" y="5" width="60" height="30" as="geometry" />
        </mxCell>
        <mxCell id="Melu5-ksbf7xbnoA28rR-43" style="edgeStyle=orthogonalEdgeStyle;rounded=0;orthogonalLoop=1;jettySize=auto;html=1;" parent="Melu5-ksbf7xbnoA28rR-39" target="Melu5-ksbf7xbnoA28rR-44" edge="1">
          <mxGeometry relative="1" as="geometry">
            <mxPoint x="100" y="170" as="sourcePoint" />
          </mxGeometry>
        </mxCell>
        <mxCell id="Melu5-ksbf7xbnoA28rR-44" value="Reset" style="text;html=1;align=center;verticalAlign=middle;resizable=0;points=[];autosize=1;strokeColor=none;fillColor=none;fontStyle=1" parent="Melu5-ksbf7xbnoA28rR-39" vertex="1">
          <mxGeometry x="70" y="90" width="60" height="30" as="geometry" />
        </mxCell>
        <mxCell id="Melu5-ksbf7xbnoA28rR-45" value="LD" style="text;html=1;strokeColor=none;fillColor=none;align=center;verticalAlign=middle;whiteSpace=wrap;rounded=0;fontStyle=1" parent="Melu5-ksbf7xbnoA28rR-39" vertex="1">
          <mxGeometry y="45" width="60" height="30" as="geometry" />
        </mxCell>
        <mxCell id="Melu5-ksbf7xbnoA28rR-46" value="&lt;span style=&quot;font-size: 13px;&quot;&gt;&lt;b&gt;REGISTRO&lt;br&gt;MAPA&lt;br&gt;SOLUCION&lt;br&gt;&lt;/b&gt;&lt;/span&gt;" style="text;html=1;strokeColor=none;fillColor=none;align=center;verticalAlign=middle;whiteSpace=wrap;rounded=0;" parent="Melu5-ksbf7xbnoA28rR-39" vertex="1">
          <mxGeometry x="51.5" y="45" width="70" height="30" as="geometry" />
        </mxCell>
        <mxCell id="Melu5-ksbf7xbnoA28rR-47" value="" style="triangle;whiteSpace=wrap;html=1;" parent="Melu5-ksbf7xbnoA28rR-39" vertex="1">
          <mxGeometry y="80" width="30" height="40" as="geometry" />
        </mxCell>
        <mxCell id="Melu5-ksbf7xbnoA28rR-48" value="Clk" style="text;html=1;strokeColor=none;fillColor=none;align=center;verticalAlign=middle;whiteSpace=wrap;rounded=0;fontStyle=1" parent="1" vertex="1">
          <mxGeometry x="23" y="495" width="60" height="30" as="geometry" />
        </mxCell>
        <mxCell id="Melu5-ksbf7xbnoA28rR-49" value="&lt;font color=&quot;#3333ff&quot;&gt;SOL(CURSOR_SOL)&lt;/font&gt;" style="text;html=1;strokeColor=none;fillColor=none;align=center;verticalAlign=middle;whiteSpace=wrap;rounded=0;fontStyle=1" parent="1" vertex="1">
          <mxGeometry x="310" y="420" width="80" height="30" as="geometry" />
        </mxCell>
        <mxCell id="Melu5-ksbf7xbnoA28rR-50" value="&lt;span&gt;&lt;font color=&quot;#ff0000&quot;&gt;LD_SOL&lt;/font&gt;&lt;/span&gt;" style="text;html=1;strokeColor=none;fillColor=none;align=center;verticalAlign=middle;whiteSpace=wrap;rounded=0;fontStyle=1" parent="1" vertex="1">
          <mxGeometry x="23" y="460" width="60" height="30" as="geometry" />
        </mxCell>
        <mxCell id="Melu5-ksbf7xbnoA28rR-51" value="&lt;b&gt;Reset_L*&lt;/b&gt;" style="text;html=1;strokeColor=none;fillColor=none;align=center;verticalAlign=middle;whiteSpace=wrap;rounded=0;" parent="1" vertex="1">
          <mxGeometry x="218" y="555" width="60" height="40" as="geometry" />
        </mxCell>
        <mxCell id="Melu5-ksbf7xbnoA28rR-52" style="edgeStyle=orthogonalEdgeStyle;rounded=0;orthogonalLoop=1;jettySize=auto;html=1;entryX=0;entryY=0.5;entryDx=0;entryDy=0;" parent="1" edge="1">
          <mxGeometry relative="1" as="geometry">
            <mxPoint x="63" y="490" as="sourcePoint" />
            <mxPoint x="113" y="490" as="targetPoint" />
            <Array as="points">
              <mxPoint x="63" y="490" />
            </Array>
          </mxGeometry>
        </mxCell>
        <mxCell id="Melu5-ksbf7xbnoA28rR-53" style="edgeStyle=orthogonalEdgeStyle;rounded=0;orthogonalLoop=1;jettySize=auto;html=1;" parent="1" edge="1">
          <mxGeometry relative="1" as="geometry">
            <mxPoint x="63" y="525" as="sourcePoint" />
            <mxPoint x="113" y="525" as="targetPoint" />
            <Array as="points">
              <mxPoint x="73" y="525" />
              <mxPoint x="73" y="525" />
            </Array>
          </mxGeometry>
        </mxCell>
        <mxCell id="Melu5-ksbf7xbnoA28rR-54" value="&lt;span&gt;COMMAND(2)&lt;/span&gt;" style="text;html=1;strokeColor=none;fillColor=none;align=center;verticalAlign=middle;whiteSpace=wrap;rounded=0;fontStyle=1" parent="1" vertex="1">
          <mxGeometry x="20" y="420" width="60" height="30" as="geometry" />
        </mxCell>
        <mxCell id="Melu5-ksbf7xbnoA28rR-55" style="edgeStyle=orthogonalEdgeStyle;rounded=0;orthogonalLoop=1;jettySize=auto;html=1;entryX=0;entryY=0.5;entryDx=0;entryDy=0;" parent="1" edge="1">
          <mxGeometry relative="1" as="geometry">
            <mxPoint x="63" y="445" as="sourcePoint" />
            <mxPoint x="113" y="445" as="targetPoint" />
            <Array as="points">
              <mxPoint x="63" y="445" />
            </Array>
          </mxGeometry>
        </mxCell>
        <mxCell id="Melu5-ksbf7xbnoA28rR-57" value="" style="swimlane;startSize=0;" parent="1" vertex="1">
          <mxGeometry x="514" y="335" width="200" height="200" as="geometry">
            <mxRectangle x="120" y="130" width="50" height="40" as="alternateBounds" />
          </mxGeometry>
        </mxCell>
        <mxCell id="Melu5-ksbf7xbnoA28rR-58" style="edgeStyle=orthogonalEdgeStyle;rounded=0;orthogonalLoop=1;jettySize=auto;html=1;" parent="Melu5-ksbf7xbnoA28rR-57" target="Melu5-ksbf7xbnoA28rR-59" edge="1">
          <mxGeometry relative="1" as="geometry">
            <mxPoint x="100" y="-70" as="sourcePoint" />
          </mxGeometry>
        </mxCell>
        <mxCell id="Melu5-ksbf7xbnoA28rR-59" value="D" style="text;html=1;align=center;verticalAlign=middle;resizable=0;points=[];autosize=1;strokeColor=none;fillColor=none;rounded=0;fontStyle=1" parent="Melu5-ksbf7xbnoA28rR-57" vertex="1">
          <mxGeometry x="85" width="30" height="30" as="geometry" />
        </mxCell>
        <mxCell id="Melu5-ksbf7xbnoA28rR-60" style="edgeStyle=orthogonalEdgeStyle;rounded=0;orthogonalLoop=1;jettySize=auto;html=1;" parent="Melu5-ksbf7xbnoA28rR-57" source="Melu5-ksbf7xbnoA28rR-61" edge="1">
          <mxGeometry relative="1" as="geometry">
            <mxPoint x="250" y="55" as="targetPoint" />
          </mxGeometry>
        </mxCell>
        <mxCell id="Melu5-ksbf7xbnoA28rR-61" value="Q" style="text;html=1;strokeColor=none;fillColor=none;align=center;verticalAlign=middle;whiteSpace=wrap;rounded=0;fontStyle=1" parent="Melu5-ksbf7xbnoA28rR-57" vertex="1">
          <mxGeometry x="140" y="40" width="60" height="30" as="geometry" />
        </mxCell>
        <mxCell id="Melu5-ksbf7xbnoA28rR-62" value="TC" style="text;html=1;strokeColor=none;fillColor=none;align=center;verticalAlign=middle;whiteSpace=wrap;rounded=0;fontStyle=1" parent="Melu5-ksbf7xbnoA28rR-57" vertex="1">
          <mxGeometry x="140" y="130" width="60" height="30" as="geometry" />
        </mxCell>
        <mxCell id="Melu5-ksbf7xbnoA28rR-63" style="edgeStyle=orthogonalEdgeStyle;rounded=0;orthogonalLoop=1;jettySize=auto;html=1;" parent="Melu5-ksbf7xbnoA28rR-57" target="Melu5-ksbf7xbnoA28rR-64" edge="1">
          <mxGeometry relative="1" as="geometry">
            <mxPoint x="100" y="250" as="sourcePoint" />
            <Array as="points">
              <mxPoint x="100" y="240" />
              <mxPoint x="100" y="240" />
            </Array>
          </mxGeometry>
        </mxCell>
        <mxCell id="Melu5-ksbf7xbnoA28rR-64" value="Reset" style="text;html=1;align=center;verticalAlign=middle;resizable=0;points=[];autosize=1;strokeColor=none;fillColor=none;fontStyle=1" parent="Melu5-ksbf7xbnoA28rR-57" vertex="1">
          <mxGeometry x="70" y="170" width="60" height="30" as="geometry" />
        </mxCell>
        <mxCell id="Melu5-ksbf7xbnoA28rR-65" style="edgeStyle=orthogonalEdgeStyle;rounded=0;orthogonalLoop=1;jettySize=auto;html=1;" parent="Melu5-ksbf7xbnoA28rR-57" target="Melu5-ksbf7xbnoA28rR-66" edge="1">
          <mxGeometry relative="1" as="geometry">
            <mxPoint x="-50" y="180" as="sourcePoint" />
            <Array as="points">
              <mxPoint x="-40" y="180" />
              <mxPoint x="-40" y="180" />
            </Array>
          </mxGeometry>
        </mxCell>
        <mxCell id="Melu5-ksbf7xbnoA28rR-66" value="" style="triangle;whiteSpace=wrap;html=1;" parent="Melu5-ksbf7xbnoA28rR-57" vertex="1">
          <mxGeometry y="160" width="30" height="40" as="geometry" />
        </mxCell>
        <mxCell id="Melu5-ksbf7xbnoA28rR-67" value="UP" style="text;html=1;strokeColor=none;fillColor=none;align=center;verticalAlign=middle;whiteSpace=wrap;rounded=0;fontStyle=1" parent="Melu5-ksbf7xbnoA28rR-57" vertex="1">
          <mxGeometry y="110" width="60" height="30" as="geometry" />
        </mxCell>
        <mxCell id="Melu5-ksbf7xbnoA28rR-68" value="LD" style="text;html=1;strokeColor=none;fillColor=none;align=center;verticalAlign=middle;whiteSpace=wrap;rounded=0;fontStyle=1" parent="Melu5-ksbf7xbnoA28rR-57" vertex="1">
          <mxGeometry y="40" width="60" height="30" as="geometry" />
        </mxCell>
        <mxCell id="Melu5-ksbf7xbnoA28rR-69" value="E" style="text;html=1;strokeColor=none;fillColor=none;align=center;verticalAlign=middle;whiteSpace=wrap;rounded=0;fontStyle=1" parent="Melu5-ksbf7xbnoA28rR-57" vertex="1">
          <mxGeometry y="70" width="60" height="30" as="geometry" />
        </mxCell>
        <mxCell id="Melu5-ksbf7xbnoA28rR-70" value="&lt;span style=&quot;font-size: 13px;&quot;&gt;&lt;b&gt;CONTADOR&lt;br&gt;&lt;/b&gt;&lt;/span&gt;&lt;b&gt;CONT_FIG&lt;/b&gt;" style="text;html=1;strokeColor=none;fillColor=none;align=center;verticalAlign=middle;whiteSpace=wrap;rounded=0;" parent="Melu5-ksbf7xbnoA28rR-57" vertex="1">
          <mxGeometry x="65" y="85" width="70" height="30" as="geometry" />
        </mxCell>
        <mxCell id="Melu5-ksbf7xbnoA28rR-71" value="" style="endArrow=none;html=1;rounded=0;" parent="Melu5-ksbf7xbnoA28rR-57" edge="1">
          <mxGeometry width="50" height="50" relative="1" as="geometry">
            <mxPoint x="95" y="-20" as="sourcePoint" />
            <mxPoint x="105" y="-40" as="targetPoint" />
          </mxGeometry>
        </mxCell>
        <mxCell id="Melu5-ksbf7xbnoA28rR-73" value="Clk" style="text;html=1;strokeColor=none;fillColor=none;align=center;verticalAlign=middle;whiteSpace=wrap;rounded=0;fontStyle=1" parent="1" vertex="1">
          <mxGeometry x="424" y="495" width="60" height="30" as="geometry" />
        </mxCell>
        <mxCell id="Melu5-ksbf7xbnoA28rR-74" value="&lt;font color=&quot;#3333ff&quot;&gt;CONT_FIG&lt;/font&gt;" style="text;html=1;strokeColor=none;fillColor=none;align=center;verticalAlign=middle;whiteSpace=wrap;rounded=0;fontStyle=1" parent="1" vertex="1">
          <mxGeometry x="744" y="355" width="80" height="30" as="geometry" />
        </mxCell>
        <mxCell id="Melu5-ksbf7xbnoA28rR-75" value="&#39;0&#39;" style="text;html=1;strokeColor=none;fillColor=none;align=center;verticalAlign=middle;whiteSpace=wrap;rounded=0;" parent="1" vertex="1">
          <mxGeometry x="424" y="445" width="60" height="30" as="geometry" />
        </mxCell>
        <mxCell id="Melu5-ksbf7xbnoA28rR-77" value="&lt;font color=&quot;#ff0000&quot;&gt;LD_CONT_FIG&lt;br&gt;&lt;/font&gt;" style="text;html=1;strokeColor=none;fillColor=none;align=center;verticalAlign=middle;whiteSpace=wrap;rounded=0;fontStyle=1" parent="1" vertex="1">
          <mxGeometry x="414" y="355" width="80" height="30" as="geometry" />
        </mxCell>
        <mxCell id="Melu5-ksbf7xbnoA28rR-78" value="&lt;span&gt;&lt;font color=&quot;#ff0000&quot;&gt;DECR_CONT_FIG&lt;/font&gt;&lt;/span&gt;" style="text;html=1;strokeColor=none;fillColor=none;align=center;verticalAlign=middle;whiteSpace=wrap;rounded=0;fontStyle=1" parent="1" vertex="1">
          <mxGeometry x="414" y="395" width="60" height="30" as="geometry" />
        </mxCell>
        <mxCell id="Melu5-ksbf7xbnoA28rR-79" value="&lt;b&gt;Reset_L*&lt;/b&gt;" style="text;html=1;strokeColor=none;fillColor=none;align=center;verticalAlign=middle;whiteSpace=wrap;rounded=0;" parent="1" vertex="1">
          <mxGeometry x="554" y="555" width="60" height="40" as="geometry" />
        </mxCell>
        <mxCell id="Melu5-ksbf7xbnoA28rR-80" value="" style="endArrow=none;html=1;rounded=0;" parent="1" edge="1">
          <mxGeometry width="50" height="50" relative="1" as="geometry">
            <mxPoint x="724" y="400" as="sourcePoint" />
            <mxPoint x="744" y="385" as="targetPoint" />
          </mxGeometry>
        </mxCell>
        <mxCell id="Melu5-ksbf7xbnoA28rR-81" value="2" style="text;html=1;strokeColor=none;fillColor=none;align=center;verticalAlign=middle;whiteSpace=wrap;rounded=0;" parent="1" vertex="1">
          <mxGeometry x="604" y="295" width="60" height="30" as="geometry" />
        </mxCell>
        <mxCell id="Melu5-ksbf7xbnoA28rR-82" value="2" style="text;html=1;strokeColor=none;fillColor=none;align=center;verticalAlign=middle;whiteSpace=wrap;rounded=0;" parent="1" vertex="1">
          <mxGeometry x="704" y="395" width="60" height="30" as="geometry" />
        </mxCell>
        <mxCell id="Melu5-ksbf7xbnoA28rR-83" style="edgeStyle=orthogonalEdgeStyle;rounded=0;orthogonalLoop=1;jettySize=auto;html=1;" parent="1" edge="1">
          <mxGeometry relative="1" as="geometry">
            <mxPoint x="464" y="459.88" as="sourcePoint" />
            <mxPoint x="514" y="459.88" as="targetPoint" />
            <Array as="points">
              <mxPoint x="474" y="459.88" />
              <mxPoint x="474" y="459.88" />
            </Array>
          </mxGeometry>
        </mxCell>
        <mxCell id="Melu5-ksbf7xbnoA28rR-84" style="edgeStyle=orthogonalEdgeStyle;rounded=0;orthogonalLoop=1;jettySize=auto;html=1;" parent="1" edge="1">
          <mxGeometry relative="1" as="geometry">
            <mxPoint x="464" y="424.77" as="sourcePoint" />
            <mxPoint x="514" y="424.77" as="targetPoint" />
            <Array as="points">
              <mxPoint x="474" y="424.77" />
              <mxPoint x="474" y="424.77" />
            </Array>
          </mxGeometry>
        </mxCell>
        <mxCell id="Melu5-ksbf7xbnoA28rR-85" style="edgeStyle=orthogonalEdgeStyle;rounded=0;orthogonalLoop=1;jettySize=auto;html=1;entryX=0;entryY=0.25;entryDx=0;entryDy=0;" parent="1" target="Melu5-ksbf7xbnoA28rR-68" edge="1">
          <mxGeometry relative="1" as="geometry">
            <mxPoint x="464" y="383" as="sourcePoint" />
            <mxPoint x="514" y="369.8" as="targetPoint" />
            <Array as="points">
              <mxPoint x="464" y="383" />
              <mxPoint x="494" y="383" />
            </Array>
          </mxGeometry>
        </mxCell>
        <mxCell id="Melu5-ksbf7xbnoA28rR-88" value="&#39;10&#39;" style="text;html=1;align=center;verticalAlign=middle;resizable=0;points=[];autosize=1;strokeColor=none;fillColor=none;" parent="1" vertex="1">
          <mxGeometry x="614" y="265" width="40" height="30" as="geometry" />
        </mxCell>
        <mxCell id="Melu5-ksbf7xbnoA28rR-89" value="" style="swimlane;startSize=0;" parent="1" vertex="1">
          <mxGeometry x="142" y="710" width="200" height="200" as="geometry">
            <mxRectangle x="120" y="130" width="50" height="40" as="alternateBounds" />
          </mxGeometry>
        </mxCell>
        <mxCell id="Melu5-ksbf7xbnoA28rR-90" style="edgeStyle=orthogonalEdgeStyle;rounded=0;orthogonalLoop=1;jettySize=auto;html=1;" parent="Melu5-ksbf7xbnoA28rR-89" target="Melu5-ksbf7xbnoA28rR-91" edge="1">
          <mxGeometry relative="1" as="geometry">
            <mxPoint x="100" y="-70" as="sourcePoint" />
          </mxGeometry>
        </mxCell>
        <mxCell id="Melu5-ksbf7xbnoA28rR-91" value="D" style="text;html=1;align=center;verticalAlign=middle;resizable=0;points=[];autosize=1;strokeColor=none;fillColor=none;rounded=0;fontStyle=1" parent="Melu5-ksbf7xbnoA28rR-89" vertex="1">
          <mxGeometry x="85" width="30" height="30" as="geometry" />
        </mxCell>
        <mxCell id="Melu5-ksbf7xbnoA28rR-92" style="edgeStyle=orthogonalEdgeStyle;rounded=0;orthogonalLoop=1;jettySize=auto;html=1;" parent="Melu5-ksbf7xbnoA28rR-89" source="Melu5-ksbf7xbnoA28rR-93" edge="1">
          <mxGeometry relative="1" as="geometry">
            <mxPoint x="250" y="55" as="targetPoint" />
          </mxGeometry>
        </mxCell>
        <mxCell id="Melu5-ksbf7xbnoA28rR-93" value="Q" style="text;html=1;strokeColor=none;fillColor=none;align=center;verticalAlign=middle;whiteSpace=wrap;rounded=0;fontStyle=1" parent="Melu5-ksbf7xbnoA28rR-89" vertex="1">
          <mxGeometry x="140" y="40" width="60" height="30" as="geometry" />
        </mxCell>
        <mxCell id="Melu5-ksbf7xbnoA28rR-94" value="TC" style="text;html=1;strokeColor=none;fillColor=none;align=center;verticalAlign=middle;whiteSpace=wrap;rounded=0;fontStyle=1" parent="Melu5-ksbf7xbnoA28rR-89" vertex="1">
          <mxGeometry x="140" y="130" width="60" height="30" as="geometry" />
        </mxCell>
        <mxCell id="Melu5-ksbf7xbnoA28rR-95" style="edgeStyle=orthogonalEdgeStyle;rounded=0;orthogonalLoop=1;jettySize=auto;html=1;" parent="Melu5-ksbf7xbnoA28rR-89" target="Melu5-ksbf7xbnoA28rR-96" edge="1">
          <mxGeometry relative="1" as="geometry">
            <mxPoint x="100" y="250" as="sourcePoint" />
            <Array as="points">
              <mxPoint x="100" y="240" />
              <mxPoint x="100" y="240" />
            </Array>
          </mxGeometry>
        </mxCell>
        <mxCell id="Melu5-ksbf7xbnoA28rR-96" value="Reset" style="text;html=1;align=center;verticalAlign=middle;resizable=0;points=[];autosize=1;strokeColor=none;fillColor=none;fontStyle=1" parent="Melu5-ksbf7xbnoA28rR-89" vertex="1">
          <mxGeometry x="70" y="170" width="60" height="30" as="geometry" />
        </mxCell>
        <mxCell id="Melu5-ksbf7xbnoA28rR-97" style="edgeStyle=orthogonalEdgeStyle;rounded=0;orthogonalLoop=1;jettySize=auto;html=1;" parent="Melu5-ksbf7xbnoA28rR-89" target="Melu5-ksbf7xbnoA28rR-98" edge="1">
          <mxGeometry relative="1" as="geometry">
            <mxPoint x="-50" y="180" as="sourcePoint" />
            <Array as="points">
              <mxPoint x="-40" y="180" />
              <mxPoint x="-40" y="180" />
            </Array>
          </mxGeometry>
        </mxCell>
        <mxCell id="Melu5-ksbf7xbnoA28rR-98" value="" style="triangle;whiteSpace=wrap;html=1;" parent="Melu5-ksbf7xbnoA28rR-89" vertex="1">
          <mxGeometry y="160" width="30" height="40" as="geometry" />
        </mxCell>
        <mxCell id="Melu5-ksbf7xbnoA28rR-99" value="UP" style="text;html=1;strokeColor=none;fillColor=none;align=center;verticalAlign=middle;whiteSpace=wrap;rounded=0;fontStyle=1" parent="Melu5-ksbf7xbnoA28rR-89" vertex="1">
          <mxGeometry y="110" width="60" height="30" as="geometry" />
        </mxCell>
        <mxCell id="Melu5-ksbf7xbnoA28rR-100" value="LD" style="text;html=1;strokeColor=none;fillColor=none;align=center;verticalAlign=middle;whiteSpace=wrap;rounded=0;fontStyle=1" parent="Melu5-ksbf7xbnoA28rR-89" vertex="1">
          <mxGeometry y="40" width="60" height="30" as="geometry" />
        </mxCell>
        <mxCell id="Melu5-ksbf7xbnoA28rR-101" value="E" style="text;html=1;strokeColor=none;fillColor=none;align=center;verticalAlign=middle;whiteSpace=wrap;rounded=0;fontStyle=1" parent="Melu5-ksbf7xbnoA28rR-89" vertex="1">
          <mxGeometry y="70" width="60" height="30" as="geometry" />
        </mxCell>
        <mxCell id="Melu5-ksbf7xbnoA28rR-102" value="&lt;div style=&quot;&quot;&gt;&lt;b style=&quot;font-size: 13px; background-color: initial;&quot;&gt;CONTADOR RXPOS/RYPOS&lt;/b&gt;&lt;/div&gt;" style="text;html=1;strokeColor=none;fillColor=none;align=center;verticalAlign=middle;whiteSpace=wrap;rounded=0;" parent="Melu5-ksbf7xbnoA28rR-89" vertex="1">
          <mxGeometry x="55" y="85" width="90" height="30" as="geometry" />
        </mxCell>
        <mxCell id="Melu5-ksbf7xbnoA28rR-103" value="" style="endArrow=none;html=1;rounded=0;" parent="Melu5-ksbf7xbnoA28rR-89" edge="1">
          <mxGeometry width="50" height="50" relative="1" as="geometry">
            <mxPoint x="95" y="-20" as="sourcePoint" />
            <mxPoint x="105" y="-40" as="targetPoint" />
          </mxGeometry>
        </mxCell>
        <mxCell id="Melu5-ksbf7xbnoA28rR-105" value="Clk" style="text;html=1;strokeColor=none;fillColor=none;align=center;verticalAlign=middle;whiteSpace=wrap;rounded=0;fontStyle=1" parent="1" vertex="1">
          <mxGeometry x="52" y="870" width="60" height="30" as="geometry" />
        </mxCell>
        <mxCell id="Melu5-ksbf7xbnoA28rR-106" value="&lt;font color=&quot;#3333ff&quot;&gt;RXPOS/RYPOS&lt;/font&gt;" style="text;html=1;strokeColor=none;fillColor=none;align=center;verticalAlign=middle;whiteSpace=wrap;rounded=0;fontStyle=1" parent="1" vertex="1">
          <mxGeometry x="372" y="730" width="80" height="30" as="geometry" />
        </mxCell>
        <mxCell id="Melu5-ksbf7xbnoA28rR-107" value="&#39;1&#39;" style="text;html=1;strokeColor=none;fillColor=none;align=center;verticalAlign=middle;whiteSpace=wrap;rounded=0;" parent="1" vertex="1">
          <mxGeometry x="52" y="820" width="60" height="30" as="geometry" />
        </mxCell>
        <mxCell id="Melu5-ksbf7xbnoA28rR-108" value="&#39;0..0&#39;" style="text;html=1;strokeColor=none;fillColor=none;align=center;verticalAlign=middle;whiteSpace=wrap;rounded=0;fontStyle=1" parent="1" vertex="1">
          <mxGeometry x="202" y="610" width="80" height="30" as="geometry" />
        </mxCell>
        <mxCell id="Melu5-ksbf7xbnoA28rR-109" value="&lt;font color=&quot;#ff0000&quot;&gt;LD_XPOS/LD_YPOS&lt;br&gt;&lt;/font&gt;" style="text;html=1;strokeColor=none;fillColor=none;align=center;verticalAlign=middle;whiteSpace=wrap;rounded=0;fontStyle=1" parent="1" vertex="1">
          <mxGeometry x="32" y="730" width="80" height="30" as="geometry" />
        </mxCell>
        <mxCell id="Melu5-ksbf7xbnoA28rR-110" value="&lt;span&gt;&lt;font color=&quot;#ff0000&quot;&gt;INCR_XPOS/ INCR_YPOS&lt;/font&gt;&lt;/span&gt;" style="text;html=1;strokeColor=none;fillColor=none;align=center;verticalAlign=middle;whiteSpace=wrap;rounded=0;fontStyle=1" parent="1" vertex="1">
          <mxGeometry x="8" y="770" width="120" height="30" as="geometry" />
        </mxCell>
        <mxCell id="Melu5-ksbf7xbnoA28rR-111" value="&lt;b&gt;Reset_L*&lt;/b&gt;" style="text;html=1;strokeColor=none;fillColor=none;align=center;verticalAlign=middle;whiteSpace=wrap;rounded=0;" parent="1" vertex="1">
          <mxGeometry x="180" y="920" width="60" height="40" as="geometry" />
        </mxCell>
        <mxCell id="Melu5-ksbf7xbnoA28rR-112" value="" style="endArrow=none;html=1;rounded=0;" parent="1" edge="1">
          <mxGeometry width="50" height="50" relative="1" as="geometry">
            <mxPoint x="352" y="775" as="sourcePoint" />
            <mxPoint x="372" y="760" as="targetPoint" />
          </mxGeometry>
        </mxCell>
        <mxCell id="Melu5-ksbf7xbnoA28rR-113" value="4" style="text;html=1;strokeColor=none;fillColor=none;align=center;verticalAlign=middle;whiteSpace=wrap;rounded=0;" parent="1" vertex="1">
          <mxGeometry x="232" y="670" width="60" height="30" as="geometry" />
        </mxCell>
        <mxCell id="Melu5-ksbf7xbnoA28rR-114" value="4" style="text;html=1;strokeColor=none;fillColor=none;align=center;verticalAlign=middle;whiteSpace=wrap;rounded=0;" parent="1" vertex="1">
          <mxGeometry x="332" y="770" width="60" height="30" as="geometry" />
        </mxCell>
        <mxCell id="Melu5-ksbf7xbnoA28rR-115" style="edgeStyle=orthogonalEdgeStyle;rounded=0;orthogonalLoop=1;jettySize=auto;html=1;" parent="1" edge="1">
          <mxGeometry relative="1" as="geometry">
            <mxPoint x="92" y="834.88" as="sourcePoint" />
            <mxPoint x="142" y="834.88" as="targetPoint" />
            <Array as="points">
              <mxPoint x="102" y="834.88" />
              <mxPoint x="102" y="834.88" />
            </Array>
          </mxGeometry>
        </mxCell>
        <mxCell id="Melu5-ksbf7xbnoA28rR-116" style="edgeStyle=orthogonalEdgeStyle;rounded=0;orthogonalLoop=1;jettySize=auto;html=1;" parent="1" edge="1">
          <mxGeometry relative="1" as="geometry">
            <mxPoint x="92" y="799.77" as="sourcePoint" />
            <mxPoint x="142" y="799.77" as="targetPoint" />
            <Array as="points">
              <mxPoint x="102" y="799.77" />
              <mxPoint x="102" y="799.77" />
            </Array>
          </mxGeometry>
        </mxCell>
        <mxCell id="Melu5-ksbf7xbnoA28rR-117" style="edgeStyle=orthogonalEdgeStyle;rounded=0;orthogonalLoop=1;jettySize=auto;html=1;entryX=0;entryY=0.25;entryDx=0;entryDy=0;" parent="1" target="Melu5-ksbf7xbnoA28rR-100" edge="1">
          <mxGeometry relative="1" as="geometry">
            <mxPoint x="92" y="758" as="sourcePoint" />
            <mxPoint x="142" y="744.8" as="targetPoint" />
            <Array as="points">
              <mxPoint x="92" y="758" />
              <mxPoint x="122" y="758" />
            </Array>
          </mxGeometry>
        </mxCell>
        <mxCell id="Melu5-ksbf7xbnoA28rR-121" value="" style="swimlane;startSize=0;" parent="1" vertex="1">
          <mxGeometry x="150" y="985" width="173" height="120" as="geometry" />
        </mxCell>
        <mxCell id="Melu5-ksbf7xbnoA28rR-122" value="D" style="text;html=1;align=center;verticalAlign=middle;resizable=0;points=[];autosize=1;strokeColor=none;fillColor=none;rounded=0;fontStyle=1" parent="Melu5-ksbf7xbnoA28rR-121" vertex="1">
          <mxGeometry y="5" width="30" height="30" as="geometry" />
        </mxCell>
        <mxCell id="Melu5-ksbf7xbnoA28rR-123" style="edgeStyle=orthogonalEdgeStyle;rounded=0;orthogonalLoop=1;jettySize=auto;html=1;" parent="Melu5-ksbf7xbnoA28rR-121" source="Melu5-ksbf7xbnoA28rR-124" edge="1">
          <mxGeometry relative="1" as="geometry">
            <mxPoint x="223" y="20" as="targetPoint" />
          </mxGeometry>
        </mxCell>
        <mxCell id="Melu5-ksbf7xbnoA28rR-124" value="Q" style="text;html=1;strokeColor=none;fillColor=none;align=center;verticalAlign=middle;whiteSpace=wrap;rounded=0;fontStyle=1" parent="Melu5-ksbf7xbnoA28rR-121" vertex="1">
          <mxGeometry x="113" y="5" width="60" height="30" as="geometry" />
        </mxCell>
        <mxCell id="Melu5-ksbf7xbnoA28rR-125" style="edgeStyle=orthogonalEdgeStyle;rounded=0;orthogonalLoop=1;jettySize=auto;html=1;" parent="Melu5-ksbf7xbnoA28rR-121" target="Melu5-ksbf7xbnoA28rR-126" edge="1">
          <mxGeometry relative="1" as="geometry">
            <mxPoint x="100" y="170" as="sourcePoint" />
          </mxGeometry>
        </mxCell>
        <mxCell id="Melu5-ksbf7xbnoA28rR-126" value="Reset" style="text;html=1;align=center;verticalAlign=middle;resizable=0;points=[];autosize=1;strokeColor=none;fillColor=none;fontStyle=1" parent="Melu5-ksbf7xbnoA28rR-121" vertex="1">
          <mxGeometry x="70" y="90" width="60" height="30" as="geometry" />
        </mxCell>
        <mxCell id="Melu5-ksbf7xbnoA28rR-128" value="&lt;span style=&quot;font-size: 13px;&quot;&gt;&lt;b&gt;BIESTABLE&lt;br&gt;RXFIG&lt;br&gt;&lt;/b&gt;&lt;/span&gt;" style="text;html=1;strokeColor=none;fillColor=none;align=center;verticalAlign=middle;whiteSpace=wrap;rounded=0;" parent="Melu5-ksbf7xbnoA28rR-121" vertex="1">
          <mxGeometry x="51.5" y="45" width="70" height="30" as="geometry" />
        </mxCell>
        <mxCell id="Melu5-ksbf7xbnoA28rR-129" value="" style="triangle;whiteSpace=wrap;html=1;" parent="Melu5-ksbf7xbnoA28rR-121" vertex="1">
          <mxGeometry y="80" width="30" height="40" as="geometry" />
        </mxCell>
        <mxCell id="Melu5-ksbf7xbnoA28rR-130" value="Clk" style="text;html=1;strokeColor=none;fillColor=none;align=center;verticalAlign=middle;whiteSpace=wrap;rounded=0;fontStyle=1" parent="1" vertex="1">
          <mxGeometry x="60" y="1055" width="60" height="30" as="geometry" />
        </mxCell>
        <mxCell id="Melu5-ksbf7xbnoA28rR-131" value="&lt;font color=&quot;#3333ff&quot;&gt;RXLINE/RXCUAD/ RYLINE/RYLINE&lt;/font&gt;" style="text;html=1;strokeColor=none;fillColor=none;align=center;verticalAlign=middle;whiteSpace=wrap;rounded=0;fontStyle=1" parent="1" vertex="1">
          <mxGeometry x="344" y="970" width="80" height="30" as="geometry" />
        </mxCell>
        <mxCell id="Melu5-ksbf7xbnoA28rR-133" value="&lt;b&gt;Reset_L*&lt;/b&gt;" style="text;html=1;strokeColor=none;fillColor=none;align=center;verticalAlign=middle;whiteSpace=wrap;rounded=0;" parent="1" vertex="1">
          <mxGeometry x="255" y="1115" width="60" height="40" as="geometry" />
        </mxCell>
        <mxCell id="Melu5-ksbf7xbnoA28rR-135" style="edgeStyle=orthogonalEdgeStyle;rounded=0;orthogonalLoop=1;jettySize=auto;html=1;" parent="1" edge="1">
          <mxGeometry relative="1" as="geometry">
            <mxPoint x="100" y="1085" as="sourcePoint" />
            <mxPoint x="150" y="1085" as="targetPoint" />
            <Array as="points">
              <mxPoint x="110" y="1085" />
              <mxPoint x="110" y="1085" />
            </Array>
          </mxGeometry>
        </mxCell>
        <mxCell id="Melu5-ksbf7xbnoA28rR-136" value="&lt;span&gt;&lt;font color=&quot;#3333ff&quot;&gt;XLINE/XCUAD/ YLINE/YCUAD&lt;/font&gt;&lt;/span&gt;" style="text;html=1;strokeColor=none;fillColor=none;align=center;verticalAlign=middle;whiteSpace=wrap;rounded=0;fontStyle=1" parent="1" vertex="1">
          <mxGeometry x="52" y="970" width="60" height="30" as="geometry" />
        </mxCell>
        <mxCell id="Melu5-ksbf7xbnoA28rR-137" style="edgeStyle=orthogonalEdgeStyle;rounded=0;orthogonalLoop=1;jettySize=auto;html=1;entryX=0;entryY=0.5;entryDx=0;entryDy=0;" parent="1" edge="1">
          <mxGeometry relative="1" as="geometry">
            <mxPoint x="100" y="1005" as="sourcePoint" />
            <mxPoint x="150" y="1005" as="targetPoint" />
            <Array as="points">
              <mxPoint x="100" y="1005" />
            </Array>
          </mxGeometry>
        </mxCell>
        <mxCell id="Melu5-ksbf7xbnoA28rR-140" style="edgeStyle=orthogonalEdgeStyle;rounded=0;orthogonalLoop=1;jettySize=auto;html=1;" parent="1" edge="1">
          <mxGeometry relative="1" as="geometry">
            <mxPoint x="554" y="720" as="targetPoint" />
            <mxPoint x="553.9999999999995" y="670.0000000000002" as="sourcePoint" />
            <Array as="points">
              <mxPoint x="554" y="680" />
              <mxPoint x="554" y="680" />
            </Array>
          </mxGeometry>
        </mxCell>
        <mxCell id="Melu5-ksbf7xbnoA28rR-146" style="edgeStyle=orthogonalEdgeStyle;rounded=0;orthogonalLoop=1;jettySize=auto;html=1;" parent="1" source="Melu5-ksbf7xbnoA28rR-138" edge="1">
          <mxGeometry relative="1" as="geometry">
            <mxPoint x="634" y="860" as="targetPoint" />
          </mxGeometry>
        </mxCell>
        <mxCell id="Melu5-ksbf7xbnoA28rR-138" value="&lt;b&gt;SUMADOR&lt;/b&gt;" style="rounded=0;whiteSpace=wrap;html=1;" parent="1" vertex="1">
          <mxGeometry x="546" y="720" width="176" height="100" as="geometry" />
        </mxCell>
        <mxCell id="Melu5-ksbf7xbnoA28rR-141" style="edgeStyle=orthogonalEdgeStyle;rounded=0;orthogonalLoop=1;jettySize=auto;html=1;" parent="1" edge="1">
          <mxGeometry relative="1" as="geometry">
            <mxPoint x="633.8" y="720" as="targetPoint" />
            <mxPoint x="633.7999999999995" y="670.0000000000002" as="sourcePoint" />
            <Array as="points">
              <mxPoint x="633.8" y="680" />
              <mxPoint x="633.8" y="680" />
            </Array>
          </mxGeometry>
        </mxCell>
        <mxCell id="Melu5-ksbf7xbnoA28rR-142" value="&lt;b&gt;XINI/YINI&lt;/b&gt;" style="text;html=1;align=center;verticalAlign=middle;resizable=0;points=[];autosize=1;strokeColor=none;fillColor=none;" parent="1" vertex="1">
          <mxGeometry x="498" y="640" width="70" height="30" as="geometry" />
        </mxCell>
        <mxCell id="Melu5-ksbf7xbnoA28rR-143" value="&lt;b&gt;(&lt;font color=&quot;#3333ff&quot;&gt;RXPOS/RYPOS&lt;/font&gt;+1)*4&lt;/b&gt;" style="text;html=1;align=center;verticalAlign=middle;resizable=0;points=[];autosize=1;strokeColor=none;fillColor=none;" parent="1" vertex="1">
          <mxGeometry x="554" y="640" width="140" height="30" as="geometry" />
        </mxCell>
        <mxCell id="Melu5-ksbf7xbnoA28rR-144" value="&lt;b&gt;&lt;font color=&quot;#3333ff&quot;&gt;RXPOS/RYPOS&lt;/font&gt;*10&lt;/b&gt;" style="text;html=1;align=center;verticalAlign=middle;resizable=0;points=[];autosize=1;strokeColor=none;fillColor=none;" parent="1" vertex="1">
          <mxGeometry x="689" y="640" width="130" height="30" as="geometry" />
        </mxCell>
        <mxCell id="Melu5-ksbf7xbnoA28rR-145" style="edgeStyle=orthogonalEdgeStyle;rounded=0;orthogonalLoop=1;jettySize=auto;html=1;" parent="1" edge="1">
          <mxGeometry relative="1" as="geometry">
            <mxPoint x="704" y="720" as="targetPoint" />
            <mxPoint x="703.9999999999995" y="670.0000000000002" as="sourcePoint" />
            <Array as="points">
              <mxPoint x="704" y="680" />
              <mxPoint x="704" y="680" />
            </Array>
          </mxGeometry>
        </mxCell>
        <mxCell id="Melu5-ksbf7xbnoA28rR-147" value="&lt;b&gt;&lt;font color=&quot;#3333ff&quot;&gt;XCUAD/YCUAD&lt;/font&gt;&lt;/b&gt;" style="text;html=1;align=center;verticalAlign=middle;resizable=0;points=[];autosize=1;strokeColor=none;fillColor=none;" parent="1" vertex="1">
          <mxGeometry x="630" y="838" width="110" height="30" as="geometry" />
        </mxCell>
        <mxCell id="Melu5-ksbf7xbnoA28rR-151" style="edgeStyle=orthogonalEdgeStyle;rounded=0;orthogonalLoop=1;jettySize=auto;html=1;" parent="1" edge="1">
          <mxGeometry relative="1" as="geometry">
            <mxPoint x="529.5" y="1000" as="targetPoint" />
            <mxPoint x="529.4999999999995" y="950.0000000000002" as="sourcePoint" />
            <Array as="points">
              <mxPoint x="529.5" y="960" />
              <mxPoint x="529.5" y="960" />
            </Array>
          </mxGeometry>
        </mxCell>
        <mxCell id="Melu5-ksbf7xbnoA28rR-152" style="edgeStyle=orthogonalEdgeStyle;rounded=0;orthogonalLoop=1;jettySize=auto;html=1;" parent="1" source="Melu5-ksbf7xbnoA28rR-153" edge="1">
          <mxGeometry relative="1" as="geometry">
            <mxPoint x="609.5" y="1140" as="targetPoint" />
          </mxGeometry>
        </mxCell>
        <mxCell id="Melu5-ksbf7xbnoA28rR-153" value="&lt;b&gt;SUMADOR&lt;/b&gt;" style="rounded=0;whiteSpace=wrap;html=1;" parent="1" vertex="1">
          <mxGeometry x="521.5" y="1000" width="176" height="100" as="geometry" />
        </mxCell>
        <mxCell id="Melu5-ksbf7xbnoA28rR-154" style="edgeStyle=orthogonalEdgeStyle;rounded=0;orthogonalLoop=1;jettySize=auto;html=1;" parent="1" edge="1">
          <mxGeometry relative="1" as="geometry">
            <mxPoint x="609.3" y="1000" as="targetPoint" />
            <mxPoint x="609.2999999999995" y="950.0000000000002" as="sourcePoint" />
            <Array as="points">
              <mxPoint x="609.3" y="960" />
              <mxPoint x="609.3" y="960" />
            </Array>
          </mxGeometry>
        </mxCell>
        <mxCell id="Melu5-ksbf7xbnoA28rR-155" value="&lt;b&gt;XINI/YINI&lt;/b&gt;" style="text;html=1;align=center;verticalAlign=middle;resizable=0;points=[];autosize=1;strokeColor=none;fillColor=none;" parent="1" vertex="1">
          <mxGeometry x="473.5" y="920" width="70" height="30" as="geometry" />
        </mxCell>
        <mxCell id="Melu5-ksbf7xbnoA28rR-156" value="&lt;b&gt;(&lt;font color=&quot;#3333ff&quot;&gt;RXPOS/RYPOS)&lt;/font&gt;*4&lt;/b&gt;" style="text;html=1;align=center;verticalAlign=middle;resizable=0;points=[];autosize=1;strokeColor=none;fillColor=none;" parent="1" vertex="1">
          <mxGeometry x="534.5" y="920" width="130" height="30" as="geometry" />
        </mxCell>
        <mxCell id="Melu5-ksbf7xbnoA28rR-157" value="&lt;b&gt;&lt;font color=&quot;#3333ff&quot;&gt;RXPOS/RYPOS&lt;/font&gt;*10&lt;/b&gt;" style="text;html=1;align=center;verticalAlign=middle;resizable=0;points=[];autosize=1;strokeColor=none;fillColor=none;" parent="1" vertex="1">
          <mxGeometry x="664.5" y="920" width="130" height="30" as="geometry" />
        </mxCell>
        <mxCell id="Melu5-ksbf7xbnoA28rR-158" style="edgeStyle=orthogonalEdgeStyle;rounded=0;orthogonalLoop=1;jettySize=auto;html=1;" parent="1" edge="1">
          <mxGeometry relative="1" as="geometry">
            <mxPoint x="679.5" y="1000" as="targetPoint" />
            <mxPoint x="679.4999999999995" y="950.0000000000002" as="sourcePoint" />
            <Array as="points">
              <mxPoint x="679.5" y="960" />
              <mxPoint x="679.5" y="960" />
            </Array>
          </mxGeometry>
        </mxCell>
        <mxCell id="Melu5-ksbf7xbnoA28rR-159" value="&lt;b&gt;&lt;font color=&quot;#3333ff&quot;&gt;XLINE/YLINE&lt;/font&gt;&lt;/b&gt;" style="text;html=1;align=center;verticalAlign=middle;resizable=0;points=[];autosize=1;strokeColor=none;fillColor=none;" parent="1" vertex="1">
          <mxGeometry x="610.5" y="1118" width="100" height="30" as="geometry" />
        </mxCell>
        <mxCell id="Melu5-ksbf7xbnoA28rR-185" value="" style="shape=trapezoid;perimeter=trapezoidPerimeter;whiteSpace=wrap;html=1;fixedSize=1;rotation=90;" parent="1" vertex="1">
          <mxGeometry x="945" y="103" width="140" height="45" as="geometry" />
        </mxCell>
        <mxCell id="Melu5-ksbf7xbnoA28rR-186" value="" style="endArrow=classic;html=1;rounded=0;entryX=1;entryY=0.5;entryDx=0;entryDy=0;" parent="1" target="Melu5-ksbf7xbnoA28rR-185" edge="1">
          <mxGeometry width="50" height="50" relative="1" as="geometry">
            <mxPoint x="1015" y="243" as="sourcePoint" />
            <mxPoint x="1015" y="193" as="targetPoint" />
          </mxGeometry>
        </mxCell>
        <mxCell id="Melu5-ksbf7xbnoA28rR-187" value="" style="endArrow=classic;html=1;rounded=0;" parent="1" edge="1">
          <mxGeometry width="50" height="50" relative="1" as="geometry">
            <mxPoint x="1039" y="127.17000000000007" as="sourcePoint" />
            <mxPoint x="1099" y="127.35000000000002" as="targetPoint" />
            <Array as="points">
              <mxPoint x="1059" y="127.35000000000002" />
            </Array>
          </mxGeometry>
        </mxCell>
        <mxCell id="Melu5-ksbf7xbnoA28rR-188" value="" style="endArrow=none;html=1;rounded=0;" parent="1" edge="1">
          <mxGeometry width="50" height="50" relative="1" as="geometry">
            <mxPoint x="1065" y="143" as="sourcePoint" />
            <mxPoint x="1085" y="113" as="targetPoint" />
          </mxGeometry>
        </mxCell>
        <mxCell id="Melu5-ksbf7xbnoA28rR-189" value="&lt;b&gt;&lt;font color=&quot;#ff0000&quot;&gt;SEL_FIG&lt;/font&gt;&lt;/b&gt;" style="text;html=1;strokeColor=none;fillColor=none;align=center;verticalAlign=middle;whiteSpace=wrap;rounded=0;" parent="1" vertex="1">
          <mxGeometry x="1015" y="203" width="60" height="30" as="geometry" />
        </mxCell>
        <mxCell id="Melu5-ksbf7xbnoA28rR-190" value="" style="endArrow=classic;html=1;rounded=0;" parent="1" edge="1">
          <mxGeometry width="50" height="50" relative="1" as="geometry">
            <mxPoint x="925" y="128" as="sourcePoint" />
            <mxPoint x="990" y="128" as="targetPoint" />
          </mxGeometry>
        </mxCell>
        <mxCell id="Melu5-ksbf7xbnoA28rR-191" value="9" style="text;html=1;strokeColor=none;fillColor=none;align=center;verticalAlign=middle;whiteSpace=wrap;rounded=0;" parent="1" vertex="1">
          <mxGeometry x="1030" y="103" width="65" height="30" as="geometry" />
        </mxCell>
        <mxCell id="Melu5-ksbf7xbnoA28rR-192" value="" style="endArrow=classic;html=1;rounded=0;" parent="1" edge="1">
          <mxGeometry width="50" height="50" relative="1" as="geometry">
            <mxPoint x="930" y="157.60000000000002" as="sourcePoint" />
            <mxPoint x="990" y="157.60000000000002" as="targetPoint" />
          </mxGeometry>
        </mxCell>
        <mxCell id="Melu5-ksbf7xbnoA28rR-193" value="" style="endArrow=none;html=1;rounded=0;" parent="1" edge="1">
          <mxGeometry width="50" height="50" relative="1" as="geometry">
            <mxPoint x="960" y="133" as="sourcePoint" />
            <mxPoint x="970" y="123" as="targetPoint" />
          </mxGeometry>
        </mxCell>
        <mxCell id="Melu5-ksbf7xbnoA28rR-194" value="" style="endArrow=none;html=1;rounded=0;" parent="1" edge="1">
          <mxGeometry width="50" height="50" relative="1" as="geometry">
            <mxPoint x="960" y="163" as="sourcePoint" />
            <mxPoint x="970" y="153" as="targetPoint" />
          </mxGeometry>
        </mxCell>
        <mxCell id="Melu5-ksbf7xbnoA28rR-195" value="9" style="text;html=1;strokeColor=none;fillColor=none;align=center;verticalAlign=middle;whiteSpace=wrap;rounded=0;" parent="1" vertex="1">
          <mxGeometry x="920" y="123" width="60" height="30" as="geometry" />
        </mxCell>
        <mxCell id="Melu5-ksbf7xbnoA28rR-196" value="9" style="text;html=1;strokeColor=none;fillColor=none;align=center;verticalAlign=middle;whiteSpace=wrap;rounded=0;" parent="1" vertex="1">
          <mxGeometry x="920" y="153" width="60" height="30" as="geometry" />
        </mxCell>
        <mxCell id="Melu5-ksbf7xbnoA28rR-197" value="&lt;b&gt;&lt;font style=&quot;font-size: 16px;&quot;&gt;/&lt;/font&gt;&lt;/b&gt;" style="text;html=1;align=center;verticalAlign=middle;resizable=0;points=[];autosize=1;strokeColor=none;fillColor=none;" parent="1" vertex="1">
          <mxGeometry x="1000" y="203" width="30" height="30" as="geometry" />
        </mxCell>
        <mxCell id="Melu5-ksbf7xbnoA28rR-198" value="2" style="text;html=1;align=center;verticalAlign=middle;resizable=0;points=[];autosize=1;strokeColor=none;fillColor=none;" parent="1" vertex="1">
          <mxGeometry x="990" y="208" width="30" height="30" as="geometry" />
        </mxCell>
        <mxCell id="Melu5-ksbf7xbnoA28rR-199" value="" style="endArrow=classic;html=1;rounded=0;" parent="1" edge="1">
          <mxGeometry width="50" height="50" relative="1" as="geometry">
            <mxPoint x="925" y="98" as="sourcePoint" />
            <mxPoint x="990" y="98" as="targetPoint" />
          </mxGeometry>
        </mxCell>
        <mxCell id="Melu5-ksbf7xbnoA28rR-200" value="" style="endArrow=none;html=1;rounded=0;" parent="1" edge="1">
          <mxGeometry width="50" height="50" relative="1" as="geometry">
            <mxPoint x="960" y="103" as="sourcePoint" />
            <mxPoint x="970" y="93" as="targetPoint" />
          </mxGeometry>
        </mxCell>
        <mxCell id="Melu5-ksbf7xbnoA28rR-201" value="9" style="text;html=1;strokeColor=none;fillColor=none;align=center;verticalAlign=middle;whiteSpace=wrap;rounded=0;" parent="1" vertex="1">
          <mxGeometry x="920" y="93" width="60" height="30" as="geometry" />
        </mxCell>
        <mxCell id="Melu5-ksbf7xbnoA28rR-202" value="" style="endArrow=classic;html=1;rounded=0;" parent="1" edge="1">
          <mxGeometry width="50" height="50" relative="1" as="geometry">
            <mxPoint x="925" y="68" as="sourcePoint" />
            <mxPoint x="990" y="68" as="targetPoint" />
          </mxGeometry>
        </mxCell>
        <mxCell id="Melu5-ksbf7xbnoA28rR-203" value="" style="endArrow=none;html=1;rounded=0;" parent="1" edge="1">
          <mxGeometry width="50" height="50" relative="1" as="geometry">
            <mxPoint x="960" y="73" as="sourcePoint" />
            <mxPoint x="970" y="63" as="targetPoint" />
          </mxGeometry>
        </mxCell>
        <mxCell id="Melu5-ksbf7xbnoA28rR-204" value="9" style="text;html=1;strokeColor=none;fillColor=none;align=center;verticalAlign=middle;whiteSpace=wrap;rounded=0;" parent="1" vertex="1">
          <mxGeometry x="920" y="63" width="60" height="30" as="geometry" />
        </mxCell>
        <mxCell id="Melu5-ksbf7xbnoA28rR-205" value="&lt;b style=&quot;&quot;&gt;XINI+4&lt;/b&gt;" style="text;html=1;align=center;verticalAlign=middle;resizable=0;points=[];autosize=1;strokeColor=none;fillColor=none;" parent="1" vertex="1">
          <mxGeometry x="865" y="53" width="60" height="30" as="geometry" />
        </mxCell>
        <mxCell id="Melu5-ksbf7xbnoA28rR-206" value="&lt;font color=&quot;#3333ff&quot;&gt;RYCUAD&lt;/font&gt;" style="text;html=1;align=center;verticalAlign=middle;resizable=0;points=[];autosize=1;strokeColor=none;fillColor=none;fontStyle=1;fontColor=default;" parent="1" vertex="1">
          <mxGeometry x="860" y="83" width="70" height="30" as="geometry" />
        </mxCell>
        <mxCell id="Melu5-ksbf7xbnoA28rR-207" value="&lt;font color=&quot;#3333ff&quot;&gt;RYLINE&lt;/font&gt;" style="text;html=1;align=center;verticalAlign=middle;resizable=0;points=[];autosize=1;strokeColor=none;fillColor=none;fontStyle=1" parent="1" vertex="1">
          <mxGeometry x="860" y="110.5" width="70" height="30" as="geometry" />
        </mxCell>
        <mxCell id="Melu5-ksbf7xbnoA28rR-208" value="&#39;0..0&#39;" style="text;html=1;align=center;verticalAlign=middle;resizable=0;points=[];autosize=1;strokeColor=none;fillColor=none;fontStyle=1" parent="1" vertex="1">
          <mxGeometry x="875" y="143" width="50" height="30" as="geometry" />
        </mxCell>
        <mxCell id="Melu5-ksbf7xbnoA28rR-209" value="&lt;b&gt;&lt;font color=&quot;#00ff00&quot;&gt;YCOOR&lt;/font&gt;&lt;/b&gt;" style="text;html=1;align=center;verticalAlign=middle;resizable=0;points=[];autosize=1;strokeColor=none;fillColor=none;" parent="1" vertex="1">
          <mxGeometry x="1065" y="91" width="70" height="30" as="geometry" />
        </mxCell>
        <mxCell id="Melu5-ksbf7xbnoA28rR-210" value="" style="shape=trapezoid;perimeter=trapezoidPerimeter;whiteSpace=wrap;html=1;fixedSize=1;rotation=90;" parent="1" vertex="1">
          <mxGeometry x="1235" y="108" width="140" height="45" as="geometry" />
        </mxCell>
        <mxCell id="Melu5-ksbf7xbnoA28rR-211" value="" style="endArrow=classic;html=1;rounded=0;entryX=1;entryY=0.5;entryDx=0;entryDy=0;" parent="1" target="Melu5-ksbf7xbnoA28rR-210" edge="1">
          <mxGeometry width="50" height="50" relative="1" as="geometry">
            <mxPoint x="1305" y="248" as="sourcePoint" />
            <mxPoint x="1305" y="198" as="targetPoint" />
          </mxGeometry>
        </mxCell>
        <mxCell id="Melu5-ksbf7xbnoA28rR-212" value="" style="endArrow=classic;html=1;rounded=0;" parent="1" edge="1">
          <mxGeometry width="50" height="50" relative="1" as="geometry">
            <mxPoint x="1329" y="132.17000000000007" as="sourcePoint" />
            <mxPoint x="1389" y="132.35000000000002" as="targetPoint" />
            <Array as="points">
              <mxPoint x="1349" y="132.35000000000002" />
            </Array>
          </mxGeometry>
        </mxCell>
        <mxCell id="Melu5-ksbf7xbnoA28rR-213" value="" style="endArrow=none;html=1;rounded=0;" parent="1" edge="1">
          <mxGeometry width="50" height="50" relative="1" as="geometry">
            <mxPoint x="1355" y="148" as="sourcePoint" />
            <mxPoint x="1375" y="118" as="targetPoint" />
          </mxGeometry>
        </mxCell>
        <mxCell id="Melu5-ksbf7xbnoA28rR-214" value="&lt;b&gt;&lt;font color=&quot;#ff0000&quot;&gt;SEL_FIG&lt;/font&gt;&lt;/b&gt;" style="text;html=1;strokeColor=none;fillColor=none;align=center;verticalAlign=middle;whiteSpace=wrap;rounded=0;" parent="1" vertex="1">
          <mxGeometry x="1305" y="208" width="60" height="30" as="geometry" />
        </mxCell>
        <mxCell id="Melu5-ksbf7xbnoA28rR-215" value="" style="endArrow=classic;html=1;rounded=0;" parent="1" edge="1">
          <mxGeometry width="50" height="50" relative="1" as="geometry">
            <mxPoint x="1215" y="133" as="sourcePoint" />
            <mxPoint x="1280" y="133" as="targetPoint" />
          </mxGeometry>
        </mxCell>
        <mxCell id="Melu5-ksbf7xbnoA28rR-216" value="8" style="text;html=1;strokeColor=none;fillColor=none;align=center;verticalAlign=middle;whiteSpace=wrap;rounded=0;" parent="1" vertex="1">
          <mxGeometry x="1310" y="108" width="75" height="30" as="geometry" />
        </mxCell>
        <mxCell id="Melu5-ksbf7xbnoA28rR-217" value="" style="endArrow=classic;html=1;rounded=0;" parent="1" edge="1">
          <mxGeometry width="50" height="50" relative="1" as="geometry">
            <mxPoint x="1220" y="162.60000000000002" as="sourcePoint" />
            <mxPoint x="1280" y="162.60000000000002" as="targetPoint" />
          </mxGeometry>
        </mxCell>
        <mxCell id="Melu5-ksbf7xbnoA28rR-218" value="" style="endArrow=none;html=1;rounded=0;" parent="1" edge="1">
          <mxGeometry width="50" height="50" relative="1" as="geometry">
            <mxPoint x="1250" y="138" as="sourcePoint" />
            <mxPoint x="1260" y="128" as="targetPoint" />
          </mxGeometry>
        </mxCell>
        <mxCell id="Melu5-ksbf7xbnoA28rR-219" value="" style="endArrow=none;html=1;rounded=0;" parent="1" edge="1">
          <mxGeometry width="50" height="50" relative="1" as="geometry">
            <mxPoint x="1250" y="168" as="sourcePoint" />
            <mxPoint x="1260" y="158" as="targetPoint" />
          </mxGeometry>
        </mxCell>
        <mxCell id="Melu5-ksbf7xbnoA28rR-220" value="8" style="text;html=1;strokeColor=none;fillColor=none;align=center;verticalAlign=middle;whiteSpace=wrap;rounded=0;" parent="1" vertex="1">
          <mxGeometry x="1210" y="128" width="60" height="30" as="geometry" />
        </mxCell>
        <mxCell id="Melu5-ksbf7xbnoA28rR-221" value="8" style="text;html=1;strokeColor=none;fillColor=none;align=center;verticalAlign=middle;whiteSpace=wrap;rounded=0;" parent="1" vertex="1">
          <mxGeometry x="1210" y="158" width="60" height="30" as="geometry" />
        </mxCell>
        <mxCell id="Melu5-ksbf7xbnoA28rR-222" value="&lt;b&gt;&lt;font style=&quot;font-size: 16px;&quot;&gt;/&lt;/font&gt;&lt;/b&gt;" style="text;html=1;align=center;verticalAlign=middle;resizable=0;points=[];autosize=1;strokeColor=none;fillColor=none;" parent="1" vertex="1">
          <mxGeometry x="1290" y="208" width="30" height="30" as="geometry" />
        </mxCell>
        <mxCell id="Melu5-ksbf7xbnoA28rR-223" value="2" style="text;html=1;align=center;verticalAlign=middle;resizable=0;points=[];autosize=1;strokeColor=none;fillColor=none;" parent="1" vertex="1">
          <mxGeometry x="1280" y="213" width="30" height="30" as="geometry" />
        </mxCell>
        <mxCell id="Melu5-ksbf7xbnoA28rR-224" value="" style="endArrow=classic;html=1;rounded=0;" parent="1" edge="1">
          <mxGeometry width="50" height="50" relative="1" as="geometry">
            <mxPoint x="1215" y="103" as="sourcePoint" />
            <mxPoint x="1280" y="103" as="targetPoint" />
          </mxGeometry>
        </mxCell>
        <mxCell id="Melu5-ksbf7xbnoA28rR-225" value="" style="endArrow=none;html=1;rounded=0;" parent="1" edge="1">
          <mxGeometry width="50" height="50" relative="1" as="geometry">
            <mxPoint x="1250" y="108" as="sourcePoint" />
            <mxPoint x="1260" y="98" as="targetPoint" />
          </mxGeometry>
        </mxCell>
        <mxCell id="Melu5-ksbf7xbnoA28rR-226" value="8" style="text;html=1;strokeColor=none;fillColor=none;align=center;verticalAlign=middle;whiteSpace=wrap;rounded=0;" parent="1" vertex="1">
          <mxGeometry x="1210" y="98" width="60" height="30" as="geometry" />
        </mxCell>
        <mxCell id="Melu5-ksbf7xbnoA28rR-227" value="" style="endArrow=classic;html=1;rounded=0;" parent="1" edge="1">
          <mxGeometry width="50" height="50" relative="1" as="geometry">
            <mxPoint x="1215" y="73" as="sourcePoint" />
            <mxPoint x="1280" y="73" as="targetPoint" />
          </mxGeometry>
        </mxCell>
        <mxCell id="Melu5-ksbf7xbnoA28rR-228" value="" style="endArrow=none;html=1;rounded=0;" parent="1" edge="1">
          <mxGeometry width="50" height="50" relative="1" as="geometry">
            <mxPoint x="1250" y="78" as="sourcePoint" />
            <mxPoint x="1260" y="68" as="targetPoint" />
          </mxGeometry>
        </mxCell>
        <mxCell id="Melu5-ksbf7xbnoA28rR-229" value="8" style="text;html=1;strokeColor=none;fillColor=none;align=center;verticalAlign=middle;whiteSpace=wrap;rounded=0;" parent="1" vertex="1">
          <mxGeometry x="1210" y="68" width="60" height="30" as="geometry" />
        </mxCell>
        <mxCell id="Melu5-ksbf7xbnoA28rR-230" value="&lt;b style=&quot;&quot;&gt;XINI+4&lt;/b&gt;" style="text;html=1;align=center;verticalAlign=middle;resizable=0;points=[];autosize=1;strokeColor=none;fillColor=none;" parent="1" vertex="1">
          <mxGeometry x="1155" y="58" width="60" height="30" as="geometry" />
        </mxCell>
        <mxCell id="Melu5-ksbf7xbnoA28rR-231" value="&lt;font color=&quot;#3333ff&quot;&gt;RXCUAD&lt;/font&gt;" style="text;html=1;align=center;verticalAlign=middle;resizable=0;points=[];autosize=1;strokeColor=none;fillColor=none;fontStyle=1;fontColor=default;" parent="1" vertex="1">
          <mxGeometry x="1150" y="88" width="70" height="30" as="geometry" />
        </mxCell>
        <mxCell id="Melu5-ksbf7xbnoA28rR-232" value="&lt;font color=&quot;#3333ff&quot;&gt;RXLINE&lt;/font&gt;" style="text;html=1;align=center;verticalAlign=middle;resizable=0;points=[];autosize=1;strokeColor=none;fillColor=none;fontStyle=1" parent="1" vertex="1">
          <mxGeometry x="1150" y="115.5" width="70" height="30" as="geometry" />
        </mxCell>
        <mxCell id="Melu5-ksbf7xbnoA28rR-233" value="&#39;0..0&#39;" style="text;html=1;align=center;verticalAlign=middle;resizable=0;points=[];autosize=1;strokeColor=none;fillColor=none;fontStyle=1" parent="1" vertex="1">
          <mxGeometry x="1165" y="148" width="50" height="30" as="geometry" />
        </mxCell>
        <mxCell id="Melu5-ksbf7xbnoA28rR-234" value="&lt;b&gt;&lt;font color=&quot;#00ff00&quot;&gt;XCOOR&lt;/font&gt;&lt;/b&gt;" style="text;html=1;align=center;verticalAlign=middle;resizable=0;points=[];autosize=1;strokeColor=none;fillColor=none;" parent="1" vertex="1">
          <mxGeometry x="1355" y="96" width="70" height="30" as="geometry" />
        </mxCell>
        <mxCell id="Melu5-ksbf7xbnoA28rR-235" value="" style="shape=trapezoid;perimeter=trapezoidPerimeter;whiteSpace=wrap;html=1;fixedSize=1;rotation=90;" parent="1" vertex="1">
          <mxGeometry x="915" y="365" width="140" height="45" as="geometry" />
        </mxCell>
        <mxCell id="Melu5-ksbf7xbnoA28rR-236" value="" style="endArrow=classic;html=1;rounded=0;entryX=1;entryY=0.5;entryDx=0;entryDy=0;" parent="1" target="Melu5-ksbf7xbnoA28rR-235" edge="1">
          <mxGeometry width="50" height="50" relative="1" as="geometry">
            <mxPoint x="985" y="505" as="sourcePoint" />
            <mxPoint x="985" y="455" as="targetPoint" />
          </mxGeometry>
        </mxCell>
        <mxCell id="Melu5-ksbf7xbnoA28rR-237" value="" style="endArrow=classic;html=1;rounded=0;" parent="1" edge="1">
          <mxGeometry width="50" height="50" relative="1" as="geometry">
            <mxPoint x="1009" y="389.1700000000001" as="sourcePoint" />
            <mxPoint x="1069" y="389.35" as="targetPoint" />
            <Array as="points">
              <mxPoint x="1029" y="389.35" />
            </Array>
          </mxGeometry>
        </mxCell>
        <mxCell id="Melu5-ksbf7xbnoA28rR-238" value="" style="endArrow=none;html=1;rounded=0;" parent="1" edge="1">
          <mxGeometry width="50" height="50" relative="1" as="geometry">
            <mxPoint x="1035" y="405" as="sourcePoint" />
            <mxPoint x="1055" y="375" as="targetPoint" />
          </mxGeometry>
        </mxCell>
        <mxCell id="Melu5-ksbf7xbnoA28rR-239" value="&lt;b&gt;&lt;font color=&quot;#ff0000&quot;&gt;SEL_LINE &amp;amp; SEL_CUAD &amp;amp; SEL_TRIA&lt;/font&gt;&lt;/b&gt;" style="text;html=1;strokeColor=none;fillColor=none;align=center;verticalAlign=middle;whiteSpace=wrap;rounded=0;" parent="1" vertex="1">
          <mxGeometry x="985" y="465" width="213.5" height="30" as="geometry" />
        </mxCell>
        <mxCell id="Melu5-ksbf7xbnoA28rR-240" value="&lt;b&gt;&lt;font&gt;SEL_FIG&lt;/font&gt;&lt;/b&gt;" style="text;html=1;strokeColor=none;fillColor=none;align=center;verticalAlign=middle;whiteSpace=wrap;rounded=0;fontColor=#FF0000;" parent="1" vertex="1">
          <mxGeometry x="1065" y="360" width="70" height="30" as="geometry" />
        </mxCell>
        <mxCell id="Melu5-ksbf7xbnoA28rR-241" value="" style="endArrow=classic;html=1;rounded=0;" parent="1" edge="1">
          <mxGeometry width="50" height="50" relative="1" as="geometry">
            <mxPoint x="895" y="390" as="sourcePoint" />
            <mxPoint x="960" y="390" as="targetPoint" />
          </mxGeometry>
        </mxCell>
        <mxCell id="Melu5-ksbf7xbnoA28rR-242" value="2" style="text;html=1;strokeColor=none;fillColor=none;align=center;verticalAlign=middle;whiteSpace=wrap;rounded=0;" parent="1" vertex="1">
          <mxGeometry x="1000" y="365" width="65" height="30" as="geometry" />
        </mxCell>
        <mxCell id="Melu5-ksbf7xbnoA28rR-243" value="" style="endArrow=classic;html=1;rounded=0;" parent="1" edge="1">
          <mxGeometry width="50" height="50" relative="1" as="geometry">
            <mxPoint x="900" y="419.6" as="sourcePoint" />
            <mxPoint x="960" y="419.6" as="targetPoint" />
          </mxGeometry>
        </mxCell>
        <mxCell id="Melu5-ksbf7xbnoA28rR-244" value="" style="endArrow=none;html=1;rounded=0;" parent="1" edge="1">
          <mxGeometry width="50" height="50" relative="1" as="geometry">
            <mxPoint x="930" y="395" as="sourcePoint" />
            <mxPoint x="940" y="385" as="targetPoint" />
          </mxGeometry>
        </mxCell>
        <mxCell id="Melu5-ksbf7xbnoA28rR-245" value="" style="endArrow=none;html=1;rounded=0;" parent="1" edge="1">
          <mxGeometry width="50" height="50" relative="1" as="geometry">
            <mxPoint x="930" y="425" as="sourcePoint" />
            <mxPoint x="940" y="415" as="targetPoint" />
          </mxGeometry>
        </mxCell>
        <mxCell id="Melu5-ksbf7xbnoA28rR-246" value="2" style="text;html=1;strokeColor=none;fillColor=none;align=center;verticalAlign=middle;whiteSpace=wrap;rounded=0;" parent="1" vertex="1">
          <mxGeometry x="890" y="385" width="60" height="30" as="geometry" />
        </mxCell>
        <mxCell id="Melu5-ksbf7xbnoA28rR-247" value="2" style="text;html=1;strokeColor=none;fillColor=none;align=center;verticalAlign=middle;whiteSpace=wrap;rounded=0;" parent="1" vertex="1">
          <mxGeometry x="890" y="415" width="60" height="30" as="geometry" />
        </mxCell>
        <mxCell id="Melu5-ksbf7xbnoA28rR-248" value="&lt;b&gt;&lt;font style=&quot;font-size: 16px;&quot;&gt;/&lt;/font&gt;&lt;/b&gt;" style="text;html=1;align=center;verticalAlign=middle;resizable=0;points=[];autosize=1;strokeColor=none;fillColor=none;" parent="1" vertex="1">
          <mxGeometry x="970" y="465" width="30" height="30" as="geometry" />
        </mxCell>
        <mxCell id="Melu5-ksbf7xbnoA28rR-249" value="3" style="text;html=1;align=center;verticalAlign=middle;resizable=0;points=[];autosize=1;strokeColor=none;fillColor=none;" parent="1" vertex="1">
          <mxGeometry x="960" y="470" width="30" height="30" as="geometry" />
        </mxCell>
        <mxCell id="Melu5-ksbf7xbnoA28rR-250" value="" style="endArrow=classic;html=1;rounded=0;" parent="1" edge="1">
          <mxGeometry width="50" height="50" relative="1" as="geometry">
            <mxPoint x="895" y="360" as="sourcePoint" />
            <mxPoint x="960" y="360" as="targetPoint" />
          </mxGeometry>
        </mxCell>
        <mxCell id="Melu5-ksbf7xbnoA28rR-251" value="" style="endArrow=none;html=1;rounded=0;" parent="1" edge="1">
          <mxGeometry width="50" height="50" relative="1" as="geometry">
            <mxPoint x="930" y="365" as="sourcePoint" />
            <mxPoint x="940" y="355" as="targetPoint" />
          </mxGeometry>
        </mxCell>
        <mxCell id="Melu5-ksbf7xbnoA28rR-252" value="2" style="text;html=1;strokeColor=none;fillColor=none;align=center;verticalAlign=middle;whiteSpace=wrap;rounded=0;" parent="1" vertex="1">
          <mxGeometry x="890" y="355" width="60" height="30" as="geometry" />
        </mxCell>
        <mxCell id="Melu5-ksbf7xbnoA28rR-253" value="" style="endArrow=classic;html=1;rounded=0;" parent="1" edge="1">
          <mxGeometry width="50" height="50" relative="1" as="geometry">
            <mxPoint x="895" y="330" as="sourcePoint" />
            <mxPoint x="960" y="330" as="targetPoint" />
          </mxGeometry>
        </mxCell>
        <mxCell id="Melu5-ksbf7xbnoA28rR-254" value="" style="endArrow=none;html=1;rounded=0;" parent="1" edge="1">
          <mxGeometry width="50" height="50" relative="1" as="geometry">
            <mxPoint x="930" y="335" as="sourcePoint" />
            <mxPoint x="940" y="325" as="targetPoint" />
          </mxGeometry>
        </mxCell>
        <mxCell id="Melu5-ksbf7xbnoA28rR-255" value="2" style="text;html=1;strokeColor=none;fillColor=none;align=center;verticalAlign=middle;whiteSpace=wrap;rounded=0;" parent="1" vertex="1">
          <mxGeometry x="890" y="325" width="60" height="30" as="geometry" />
        </mxCell>
        <mxCell id="Melu5-ksbf7xbnoA28rR-256" value="&lt;font&gt;&lt;b&gt;&quot;11&quot;&lt;/b&gt;&lt;/font&gt;" style="text;html=1;align=center;verticalAlign=middle;resizable=0;points=[];autosize=1;strokeColor=none;fillColor=none;fontColor=default;" parent="1" vertex="1">
          <mxGeometry x="840" y="315" width="50" height="30" as="geometry" />
        </mxCell>
        <mxCell id="Melu5-ksbf7xbnoA28rR-257" value="&lt;font&gt;&quot;01&quot;&lt;/font&gt;" style="text;html=1;align=center;verticalAlign=middle;resizable=0;points=[];autosize=1;strokeColor=none;fillColor=none;fontStyle=1;fontColor=default;" parent="1" vertex="1">
          <mxGeometry x="840" y="345" width="50" height="30" as="geometry" />
        </mxCell>
        <mxCell id="Melu5-ksbf7xbnoA28rR-258" value="&lt;font&gt;&quot;11&quot;&lt;/font&gt;" style="text;html=1;align=center;verticalAlign=middle;resizable=0;points=[];autosize=1;strokeColor=none;fillColor=none;fontStyle=1;fontColor=default;" parent="1" vertex="1">
          <mxGeometry x="840" y="372.5" width="50" height="30" as="geometry" />
        </mxCell>
        <mxCell id="Melu5-ksbf7xbnoA28rR-259" value="&quot;00&quot;" style="text;html=1;align=center;verticalAlign=middle;resizable=0;points=[];autosize=1;strokeColor=none;fillColor=none;fontStyle=1;fontColor=default;" parent="1" vertex="1">
          <mxGeometry x="845" y="405" width="50" height="30" as="geometry" />
        </mxCell>
        <mxCell id="Melu5-ksbf7xbnoA28rR-285" value="" style="shape=trapezoid;perimeter=trapezoidPerimeter;whiteSpace=wrap;html=1;fixedSize=1;rotation=90;" parent="1" vertex="1">
          <mxGeometry x="1326" y="365" width="140" height="45" as="geometry" />
        </mxCell>
        <mxCell id="Melu5-ksbf7xbnoA28rR-286" value="" style="endArrow=classic;html=1;rounded=0;entryX=1;entryY=0.5;entryDx=0;entryDy=0;" parent="1" target="Melu5-ksbf7xbnoA28rR-285" edge="1">
          <mxGeometry width="50" height="50" relative="1" as="geometry">
            <mxPoint x="1396" y="505" as="sourcePoint" />
            <mxPoint x="1396" y="455" as="targetPoint" />
          </mxGeometry>
        </mxCell>
        <mxCell id="Melu5-ksbf7xbnoA28rR-287" value="" style="endArrow=classic;html=1;rounded=0;" parent="1" edge="1">
          <mxGeometry width="50" height="50" relative="1" as="geometry">
            <mxPoint x="1420" y="389.1700000000001" as="sourcePoint" />
            <mxPoint x="1480" y="389.35" as="targetPoint" />
            <Array as="points">
              <mxPoint x="1440" y="389.35" />
            </Array>
          </mxGeometry>
        </mxCell>
        <mxCell id="Melu5-ksbf7xbnoA28rR-288" value="" style="endArrow=none;html=1;rounded=0;" parent="1" edge="1">
          <mxGeometry width="50" height="50" relative="1" as="geometry">
            <mxPoint x="1446" y="405" as="sourcePoint" />
            <mxPoint x="1466" y="375" as="targetPoint" />
          </mxGeometry>
        </mxCell>
        <mxCell id="Melu5-ksbf7xbnoA28rR-289" value="&lt;b&gt;&lt;font color=&quot;#ff0000&quot;&gt;SEL_FIG&lt;/font&gt;&lt;/b&gt;" style="text;html=1;strokeColor=none;fillColor=none;align=center;verticalAlign=middle;whiteSpace=wrap;rounded=0;" parent="1" vertex="1">
          <mxGeometry x="1396" y="465" width="60" height="30" as="geometry" />
        </mxCell>
        <mxCell id="Melu5-ksbf7xbnoA28rR-290" value="" style="endArrow=classic;html=1;rounded=0;" parent="1" edge="1">
          <mxGeometry width="50" height="50" relative="1" as="geometry">
            <mxPoint x="1306" y="390" as="sourcePoint" />
            <mxPoint x="1371" y="390" as="targetPoint" />
          </mxGeometry>
        </mxCell>
        <mxCell id="Melu5-ksbf7xbnoA28rR-291" value="3" style="text;html=1;strokeColor=none;fillColor=none;align=center;verticalAlign=middle;whiteSpace=wrap;rounded=0;" parent="1" vertex="1">
          <mxGeometry x="1401" y="365" width="75" height="30" as="geometry" />
        </mxCell>
        <mxCell id="Melu5-ksbf7xbnoA28rR-292" value="" style="endArrow=classic;html=1;rounded=0;" parent="1" edge="1">
          <mxGeometry width="50" height="50" relative="1" as="geometry">
            <mxPoint x="1311" y="419.6" as="sourcePoint" />
            <mxPoint x="1371" y="419.6" as="targetPoint" />
          </mxGeometry>
        </mxCell>
        <mxCell id="Melu5-ksbf7xbnoA28rR-293" value="" style="endArrow=none;html=1;rounded=0;" parent="1" edge="1">
          <mxGeometry width="50" height="50" relative="1" as="geometry">
            <mxPoint x="1341" y="395" as="sourcePoint" />
            <mxPoint x="1351" y="385" as="targetPoint" />
          </mxGeometry>
        </mxCell>
        <mxCell id="Melu5-ksbf7xbnoA28rR-294" value="" style="endArrow=none;html=1;rounded=0;" parent="1" edge="1">
          <mxGeometry width="50" height="50" relative="1" as="geometry">
            <mxPoint x="1341" y="425" as="sourcePoint" />
            <mxPoint x="1351" y="415" as="targetPoint" />
          </mxGeometry>
        </mxCell>
        <mxCell id="Melu5-ksbf7xbnoA28rR-295" value="3" style="text;html=1;strokeColor=none;fillColor=none;align=center;verticalAlign=middle;whiteSpace=wrap;rounded=0;" parent="1" vertex="1">
          <mxGeometry x="1301" y="385" width="60" height="30" as="geometry" />
        </mxCell>
        <mxCell id="Melu5-ksbf7xbnoA28rR-296" value="3" style="text;html=1;strokeColor=none;fillColor=none;align=center;verticalAlign=middle;whiteSpace=wrap;rounded=0;" parent="1" vertex="1">
          <mxGeometry x="1301" y="415" width="60" height="30" as="geometry" />
        </mxCell>
        <mxCell id="Melu5-ksbf7xbnoA28rR-297" value="&lt;b&gt;&lt;font style=&quot;font-size: 16px;&quot;&gt;/&lt;/font&gt;&lt;/b&gt;" style="text;html=1;align=center;verticalAlign=middle;resizable=0;points=[];autosize=1;strokeColor=none;fillColor=none;" parent="1" vertex="1">
          <mxGeometry x="1381" y="465" width="30" height="30" as="geometry" />
        </mxCell>
        <mxCell id="Melu5-ksbf7xbnoA28rR-298" value="2" style="text;html=1;align=center;verticalAlign=middle;resizable=0;points=[];autosize=1;strokeColor=none;fillColor=none;" parent="1" vertex="1">
          <mxGeometry x="1371" y="470" width="30" height="30" as="geometry" />
        </mxCell>
        <mxCell id="Melu5-ksbf7xbnoA28rR-299" value="" style="endArrow=classic;html=1;rounded=0;" parent="1" edge="1">
          <mxGeometry width="50" height="50" relative="1" as="geometry">
            <mxPoint x="1306" y="360" as="sourcePoint" />
            <mxPoint x="1371" y="360" as="targetPoint" />
          </mxGeometry>
        </mxCell>
        <mxCell id="Melu5-ksbf7xbnoA28rR-300" value="" style="endArrow=none;html=1;rounded=0;" parent="1" edge="1">
          <mxGeometry width="50" height="50" relative="1" as="geometry">
            <mxPoint x="1341" y="365" as="sourcePoint" />
            <mxPoint x="1351" y="355" as="targetPoint" />
          </mxGeometry>
        </mxCell>
        <mxCell id="Melu5-ksbf7xbnoA28rR-301" value="3" style="text;html=1;strokeColor=none;fillColor=none;align=center;verticalAlign=middle;whiteSpace=wrap;rounded=0;" parent="1" vertex="1">
          <mxGeometry x="1301" y="355" width="60" height="30" as="geometry" />
        </mxCell>
        <mxCell id="Melu5-ksbf7xbnoA28rR-302" value="" style="endArrow=classic;html=1;rounded=0;" parent="1" edge="1">
          <mxGeometry width="50" height="50" relative="1" as="geometry">
            <mxPoint x="1306" y="330" as="sourcePoint" />
            <mxPoint x="1371" y="330" as="targetPoint" />
          </mxGeometry>
        </mxCell>
        <mxCell id="Melu5-ksbf7xbnoA28rR-303" value="" style="endArrow=none;html=1;rounded=0;" parent="1" edge="1">
          <mxGeometry width="50" height="50" relative="1" as="geometry">
            <mxPoint x="1341" y="335" as="sourcePoint" />
            <mxPoint x="1351" y="325" as="targetPoint" />
          </mxGeometry>
        </mxCell>
        <mxCell id="Melu5-ksbf7xbnoA28rR-304" value="3" style="text;html=1;strokeColor=none;fillColor=none;align=center;verticalAlign=middle;whiteSpace=wrap;rounded=0;" parent="1" vertex="1">
          <mxGeometry x="1301" y="325" width="60" height="30" as="geometry" />
        </mxCell>
        <mxCell id="Melu5-ksbf7xbnoA28rR-305" value="&lt;b&gt;&quot;010&quot;&lt;/b&gt;" style="text;html=1;align=center;verticalAlign=middle;resizable=0;points=[];autosize=1;strokeColor=none;fillColor=none;" parent="1" vertex="1">
          <mxGeometry x="1251" y="315" width="50" height="30" as="geometry" />
        </mxCell>
        <mxCell id="Melu5-ksbf7xbnoA28rR-306" value="&quot;111&quot;" style="text;html=1;align=center;verticalAlign=middle;resizable=0;points=[];autosize=1;strokeColor=none;fillColor=none;fontStyle=1;fontColor=default;" parent="1" vertex="1">
          <mxGeometry x="1251" y="345" width="50" height="30" as="geometry" />
        </mxCell>
        <mxCell id="Melu5-ksbf7xbnoA28rR-307" value="&quot;110&quot;" style="text;html=1;align=center;verticalAlign=middle;resizable=0;points=[];autosize=1;strokeColor=none;fillColor=none;fontStyle=1" parent="1" vertex="1">
          <mxGeometry x="1251" y="372.5" width="50" height="30" as="geometry" />
        </mxCell>
        <mxCell id="Melu5-ksbf7xbnoA28rR-308" value="&quot;000&quot;" style="text;html=1;align=center;verticalAlign=middle;resizable=0;points=[];autosize=1;strokeColor=none;fillColor=none;fontStyle=1" parent="1" vertex="1">
          <mxGeometry x="1256" y="405" width="50" height="30" as="geometry" />
        </mxCell>
        <mxCell id="Melu5-ksbf7xbnoA28rR-309" value="&lt;b&gt;&lt;font color=&quot;#00ff00&quot;&gt;COLOUR_CODE&lt;/font&gt;&lt;/b&gt;" style="text;html=1;align=center;verticalAlign=middle;resizable=0;points=[];autosize=1;strokeColor=none;fillColor=none;" parent="1" vertex="1">
          <mxGeometry x="1421" y="353" width="120" height="30" as="geometry" />
        </mxCell>
        <mxCell id="Melu5-ksbf7xbnoA28rR-330" style="edgeStyle=orthogonalEdgeStyle;rounded=0;orthogonalLoop=1;jettySize=auto;html=1;" parent="1" source="Melu5-ksbf7xbnoA28rR-310" edge="1">
          <mxGeometry relative="1" as="geometry">
            <mxPoint x="985" y="790" as="targetPoint" />
          </mxGeometry>
        </mxCell>
        <mxCell id="Melu5-ksbf7xbnoA28rR-310" value="COMPARADOR" style="whiteSpace=wrap;html=1;" parent="1" vertex="1">
          <mxGeometry x="925" y="625" width="120" height="100" as="geometry" />
        </mxCell>
        <mxCell id="Melu5-ksbf7xbnoA28rR-311" value="" style="swimlane;startSize=0;" parent="1" vertex="1">
          <mxGeometry x="1252" y="600" width="173" height="120" as="geometry" />
        </mxCell>
        <mxCell id="Melu5-ksbf7xbnoA28rR-312" value="PRS" style="text;html=1;align=center;verticalAlign=middle;resizable=0;points=[];autosize=1;strokeColor=none;fillColor=none;rounded=0;fontStyle=1" parent="Melu5-ksbf7xbnoA28rR-311" vertex="1">
          <mxGeometry x="5" y="5" width="50" height="30" as="geometry" />
        </mxCell>
        <mxCell id="Melu5-ksbf7xbnoA28rR-313" style="edgeStyle=orthogonalEdgeStyle;rounded=0;orthogonalLoop=1;jettySize=auto;html=1;" parent="Melu5-ksbf7xbnoA28rR-311" source="Melu5-ksbf7xbnoA28rR-314" edge="1">
          <mxGeometry relative="1" as="geometry">
            <mxPoint x="223" y="20" as="targetPoint" />
          </mxGeometry>
        </mxCell>
        <mxCell id="Melu5-ksbf7xbnoA28rR-314" value="Q" style="text;html=1;strokeColor=none;fillColor=none;align=center;verticalAlign=middle;whiteSpace=wrap;rounded=0;fontStyle=1" parent="Melu5-ksbf7xbnoA28rR-311" vertex="1">
          <mxGeometry x="113" y="5" width="60" height="30" as="geometry" />
        </mxCell>
        <mxCell id="Melu5-ksbf7xbnoA28rR-315" style="edgeStyle=orthogonalEdgeStyle;rounded=0;orthogonalLoop=1;jettySize=auto;html=1;" parent="Melu5-ksbf7xbnoA28rR-311" target="Melu5-ksbf7xbnoA28rR-316" edge="1">
          <mxGeometry relative="1" as="geometry">
            <mxPoint x="100" y="170" as="sourcePoint" />
          </mxGeometry>
        </mxCell>
        <mxCell id="Melu5-ksbf7xbnoA28rR-316" value="Reset" style="text;html=1;align=center;verticalAlign=middle;resizable=0;points=[];autosize=1;strokeColor=none;fillColor=none;fontStyle=1" parent="Melu5-ksbf7xbnoA28rR-311" vertex="1">
          <mxGeometry x="70" y="90" width="60" height="30" as="geometry" />
        </mxCell>
        <mxCell id="Melu5-ksbf7xbnoA28rR-317" value="CL" style="text;html=1;strokeColor=none;fillColor=none;align=center;verticalAlign=middle;whiteSpace=wrap;rounded=0;fontStyle=1" parent="Melu5-ksbf7xbnoA28rR-311" vertex="1">
          <mxGeometry y="45" width="60" height="30" as="geometry" />
        </mxCell>
        <mxCell id="Melu5-ksbf7xbnoA28rR-318" value="&lt;span style=&quot;font-size: 13px;&quot;&gt;&lt;b&gt;BIESTABLE&lt;/b&gt;&lt;/span&gt;" style="text;html=1;strokeColor=none;fillColor=none;align=center;verticalAlign=middle;whiteSpace=wrap;rounded=0;" parent="Melu5-ksbf7xbnoA28rR-311" vertex="1">
          <mxGeometry x="65" y="50" width="70" height="30" as="geometry" />
        </mxCell>
        <mxCell id="Melu5-ksbf7xbnoA28rR-319" value="" style="triangle;whiteSpace=wrap;html=1;" parent="Melu5-ksbf7xbnoA28rR-311" vertex="1">
          <mxGeometry y="80" width="30" height="40" as="geometry" />
        </mxCell>
        <mxCell id="Melu5-ksbf7xbnoA28rR-320" value="Clk" style="text;html=1;strokeColor=none;fillColor=none;align=center;verticalAlign=middle;whiteSpace=wrap;rounded=0;fontStyle=1" parent="1" vertex="1">
          <mxGeometry x="1162" y="670" width="60" height="30" as="geometry" />
        </mxCell>
        <mxCell id="Melu5-ksbf7xbnoA28rR-321" value="&lt;font color=&quot;#3333ff&quot;&gt;SEL_CUAD/SEL_TRIA/SEL_LINE&lt;/font&gt;" style="text;html=1;strokeColor=none;fillColor=none;align=center;verticalAlign=middle;whiteSpace=wrap;rounded=0;fontStyle=1" parent="1" vertex="1">
          <mxGeometry x="1484" y="595" width="80" height="30" as="geometry" />
        </mxCell>
        <mxCell id="Melu5-ksbf7xbnoA28rR-322" value="&lt;span&gt;&lt;font color=&quot;#ff0000&quot;&gt;CL_FIG&lt;/font&gt;&lt;/span&gt;" style="text;html=1;strokeColor=none;fillColor=none;align=center;verticalAlign=middle;whiteSpace=wrap;rounded=0;fontStyle=1" parent="1" vertex="1">
          <mxGeometry x="1162" y="635" width="60" height="30" as="geometry" />
        </mxCell>
        <mxCell id="Melu5-ksbf7xbnoA28rR-323" value="&lt;b&gt;Reset_L*&lt;/b&gt;" style="text;html=1;strokeColor=none;fillColor=none;align=center;verticalAlign=middle;whiteSpace=wrap;rounded=0;" parent="1" vertex="1">
          <mxGeometry x="1357" y="730" width="60" height="40" as="geometry" />
        </mxCell>
        <mxCell id="Melu5-ksbf7xbnoA28rR-324" style="edgeStyle=orthogonalEdgeStyle;rounded=0;orthogonalLoop=1;jettySize=auto;html=1;entryX=0;entryY=0.5;entryDx=0;entryDy=0;" parent="1" edge="1">
          <mxGeometry relative="1" as="geometry">
            <mxPoint x="1202" y="665" as="sourcePoint" />
            <mxPoint x="1252" y="665" as="targetPoint" />
            <Array as="points">
              <mxPoint x="1202" y="665" />
            </Array>
          </mxGeometry>
        </mxCell>
        <mxCell id="Melu5-ksbf7xbnoA28rR-325" style="edgeStyle=orthogonalEdgeStyle;rounded=0;orthogonalLoop=1;jettySize=auto;html=1;" parent="1" edge="1">
          <mxGeometry relative="1" as="geometry">
            <mxPoint x="1202" y="700" as="sourcePoint" />
            <mxPoint x="1252" y="700" as="targetPoint" />
            <Array as="points">
              <mxPoint x="1212" y="700" />
              <mxPoint x="1212" y="700" />
            </Array>
          </mxGeometry>
        </mxCell>
        <mxCell id="Melu5-ksbf7xbnoA28rR-326" value="&lt;span&gt;&lt;font color=&quot;#ff0000&quot;&gt;LD_LINE/LD_CUAD/LD_TRIA&lt;/font&gt;&lt;/span&gt;" style="text;html=1;strokeColor=none;fillColor=none;align=center;verticalAlign=middle;whiteSpace=wrap;rounded=0;fontStyle=1" parent="1" vertex="1">
          <mxGeometry x="1130" y="595" width="60" height="30" as="geometry" />
        </mxCell>
        <mxCell id="Melu5-ksbf7xbnoA28rR-327" style="edgeStyle=orthogonalEdgeStyle;rounded=0;orthogonalLoop=1;jettySize=auto;html=1;entryX=0;entryY=0.5;entryDx=0;entryDy=0;" parent="1" edge="1">
          <mxGeometry relative="1" as="geometry">
            <mxPoint x="1202" y="620" as="sourcePoint" />
            <mxPoint x="1252" y="620" as="targetPoint" />
            <Array as="points">
              <mxPoint x="1202" y="620" />
            </Array>
          </mxGeometry>
        </mxCell>
        <mxCell id="Melu5-ksbf7xbnoA28rR-328" style="edgeStyle=orthogonalEdgeStyle;rounded=0;orthogonalLoop=1;jettySize=auto;html=1;exitX=0;exitY=1;exitDx=0;exitDy=0;entryX=0.25;entryY=1;entryDx=0;entryDy=0;" parent="1" source="Melu5-ksbf7xbnoA28rR-320" target="Melu5-ksbf7xbnoA28rR-320" edge="1">
          <mxGeometry relative="1" as="geometry" />
        </mxCell>
        <mxCell id="Melu5-ksbf7xbnoA28rR-329" value="A=B" style="text;html=1;align=center;verticalAlign=middle;resizable=0;points=[];autosize=1;strokeColor=none;fillColor=none;" parent="1" vertex="1">
          <mxGeometry x="960" y="695" width="50" height="30" as="geometry" />
        </mxCell>
        <mxCell id="Melu5-ksbf7xbnoA28rR-331" value="&lt;font color=&quot;#3333ff&quot;&gt;&lt;b&gt;XLIM_CUAD/YLIM_CUAD&lt;/b&gt;&lt;/font&gt;" style="text;html=1;align=center;verticalAlign=middle;resizable=0;points=[];autosize=1;strokeColor=none;fillColor=none;" parent="1" vertex="1">
          <mxGeometry x="980" y="748" width="170" height="30" as="geometry" />
        </mxCell>
        <mxCell id="Melu5-ksbf7xbnoA28rR-333" style="edgeStyle=orthogonalEdgeStyle;rounded=0;orthogonalLoop=1;jettySize=auto;html=1;entryX=0.25;entryY=0;entryDx=0;entryDy=0;" parent="1" source="Melu5-ksbf7xbnoA28rR-332" target="Melu5-ksbf7xbnoA28rR-310" edge="1">
          <mxGeometry relative="1" as="geometry" />
        </mxCell>
        <mxCell id="Melu5-ksbf7xbnoA28rR-332" value="&lt;b&gt;&lt;font color=&quot;#3333ff&quot;&gt;RXPOS/RYPOS&lt;/font&gt;&lt;/b&gt;" style="text;html=1;align=center;verticalAlign=middle;resizable=0;points=[];autosize=1;strokeColor=none;fillColor=none;" parent="1" vertex="1">
          <mxGeometry x="900" y="555" width="110" height="30" as="geometry" />
        </mxCell>
        <mxCell id="Melu5-ksbf7xbnoA28rR-336" style="edgeStyle=orthogonalEdgeStyle;rounded=0;orthogonalLoop=1;jettySize=auto;html=1;entryX=0.809;entryY=0.001;entryDx=0;entryDy=0;entryPerimeter=0;" parent="1" source="Melu5-ksbf7xbnoA28rR-335" target="Melu5-ksbf7xbnoA28rR-310" edge="1">
          <mxGeometry relative="1" as="geometry">
            <mxPoint x="1025" y="620" as="targetPoint" />
            <Array as="points">
              <mxPoint x="1022" y="590" />
              <mxPoint x="1022" y="590" />
            </Array>
          </mxGeometry>
        </mxCell>
        <mxCell id="Melu5-ksbf7xbnoA28rR-335" value="10" style="text;html=1;align=center;verticalAlign=middle;resizable=0;points=[];autosize=1;strokeColor=none;fillColor=none;" parent="1" vertex="1">
          <mxGeometry x="1000" y="554" width="40" height="30" as="geometry" />
        </mxCell>
        <mxCell id="Melu5-ksbf7xbnoA28rR-338" style="edgeStyle=orthogonalEdgeStyle;rounded=0;orthogonalLoop=1;jettySize=auto;html=1;" parent="1" source="Melu5-ksbf7xbnoA28rR-339" edge="1">
          <mxGeometry relative="1" as="geometry">
            <mxPoint x="985" y="1074" as="targetPoint" />
          </mxGeometry>
        </mxCell>
        <mxCell id="Melu5-ksbf7xbnoA28rR-339" value="COMPARADOR" style="whiteSpace=wrap;html=1;" parent="1" vertex="1">
          <mxGeometry x="925" y="909" width="120" height="100" as="geometry" />
        </mxCell>
        <mxCell id="Melu5-ksbf7xbnoA28rR-340" value="A=B" style="text;html=1;align=center;verticalAlign=middle;resizable=0;points=[];autosize=1;strokeColor=none;fillColor=none;" parent="1" vertex="1">
          <mxGeometry x="960" y="979" width="50" height="30" as="geometry" />
        </mxCell>
        <mxCell id="Melu5-ksbf7xbnoA28rR-341" value="&lt;font color=&quot;#3333ff&quot;&gt;&lt;b&gt;XLIM_LINE/YLIM_LINE&lt;/b&gt;&lt;/font&gt;" style="text;html=1;align=center;verticalAlign=middle;resizable=0;points=[];autosize=1;strokeColor=none;fillColor=none;" parent="1" vertex="1">
          <mxGeometry x="980" y="1035" width="150" height="30" as="geometry" />
        </mxCell>
        <mxCell id="Melu5-ksbf7xbnoA28rR-342" style="edgeStyle=orthogonalEdgeStyle;rounded=0;orthogonalLoop=1;jettySize=auto;html=1;entryX=0.25;entryY=0;entryDx=0;entryDy=0;" parent="1" source="Melu5-ksbf7xbnoA28rR-343" target="Melu5-ksbf7xbnoA28rR-339" edge="1">
          <mxGeometry relative="1" as="geometry" />
        </mxCell>
        <mxCell id="Melu5-ksbf7xbnoA28rR-343" value="&lt;b&gt;&lt;font color=&quot;#3333ff&quot;&gt;RXPOS/RYPOS&lt;/font&gt;&lt;/b&gt;" style="text;html=1;align=center;verticalAlign=middle;resizable=0;points=[];autosize=1;strokeColor=none;fillColor=none;" parent="1" vertex="1">
          <mxGeometry x="900" y="839" width="110" height="30" as="geometry" />
        </mxCell>
        <mxCell id="Melu5-ksbf7xbnoA28rR-344" style="edgeStyle=orthogonalEdgeStyle;rounded=0;orthogonalLoop=1;jettySize=auto;html=1;entryX=0.809;entryY=0.001;entryDx=0;entryDy=0;entryPerimeter=0;" parent="1" source="Melu5-ksbf7xbnoA28rR-345" target="Melu5-ksbf7xbnoA28rR-339" edge="1">
          <mxGeometry relative="1" as="geometry">
            <mxPoint x="1025" y="904" as="targetPoint" />
            <Array as="points">
              <mxPoint x="1022" y="874" />
              <mxPoint x="1022" y="874" />
            </Array>
          </mxGeometry>
        </mxCell>
        <mxCell id="Melu5-ksbf7xbnoA28rR-345" value="11" style="text;html=1;align=center;verticalAlign=middle;resizable=0;points=[];autosize=1;strokeColor=none;fillColor=none;" parent="1" vertex="1">
          <mxGeometry x="1000" y="838" width="40" height="30" as="geometry" />
        </mxCell>
        <mxCell id="Melu5-ksbf7xbnoA28rR-346" value="&lt;font style=&quot;font-size: 16px;&quot;&gt;/&lt;/font&gt;" style="text;html=1;align=center;verticalAlign=middle;resizable=0;points=[];autosize=1;strokeColor=none;fillColor=none;rotation=30;" parent="1" vertex="1">
          <mxGeometry x="1006" y="592" width="30" height="30" as="geometry" />
        </mxCell>
        <mxCell id="Melu5-ksbf7xbnoA28rR-349" value="&lt;font style=&quot;font-size: 16px;&quot;&gt;/&lt;/font&gt;" style="text;html=1;align=center;verticalAlign=middle;resizable=0;points=[];autosize=1;strokeColor=none;fillColor=none;" parent="1" vertex="1">
          <mxGeometry x="1007" y="873" width="30" height="30" as="geometry" />
        </mxCell>
        <mxCell id="Melu5-ksbf7xbnoA28rR-350" value="8/9" style="text;html=1;align=center;verticalAlign=middle;resizable=0;points=[];autosize=1;strokeColor=none;fillColor=none;" parent="1" vertex="1">
          <mxGeometry x="500" y="678" width="40" height="30" as="geometry" />
        </mxCell>
        <mxCell id="Melu5-ksbf7xbnoA28rR-351" value="8/9" style="text;html=1;align=center;verticalAlign=middle;resizable=0;points=[];autosize=1;strokeColor=none;fillColor=none;" parent="1" vertex="1">
          <mxGeometry x="589.5" y="680" width="40" height="30" as="geometry" />
        </mxCell>
        <mxCell id="Melu5-ksbf7xbnoA28rR-352" value="8/9" style="text;html=1;align=center;verticalAlign=middle;resizable=0;points=[];autosize=1;strokeColor=none;fillColor=none;" parent="1" vertex="1">
          <mxGeometry x="664" y="678" width="40" height="30" as="geometry" />
        </mxCell>
        <mxCell id="Melu5-ksbf7xbnoA28rR-353" value="8/9" style="text;html=1;align=center;verticalAlign=middle;resizable=0;points=[];autosize=1;strokeColor=none;fillColor=none;" parent="1" vertex="1">
          <mxGeometry x="594" y="820" width="40" height="30" as="geometry" />
        </mxCell>
        <mxCell id="Melu5-ksbf7xbnoA28rR-354" value="8/9" style="text;html=1;align=center;verticalAlign=middle;resizable=0;points=[];autosize=1;strokeColor=none;fillColor=none;" parent="1" vertex="1">
          <mxGeometry x="488.5" y="955" width="40" height="30" as="geometry" />
        </mxCell>
        <mxCell id="Melu5-ksbf7xbnoA28rR-355" value="8/9" style="text;html=1;align=center;verticalAlign=middle;resizable=0;points=[];autosize=1;strokeColor=none;fillColor=none;" parent="1" vertex="1">
          <mxGeometry x="570" y="955" width="40" height="30" as="geometry" />
        </mxCell>
        <mxCell id="Melu5-ksbf7xbnoA28rR-356" value="8/9" style="text;html=1;align=center;verticalAlign=middle;resizable=0;points=[];autosize=1;strokeColor=none;fillColor=none;" parent="1" vertex="1">
          <mxGeometry x="640.5" y="955" width="40" height="30" as="geometry" />
        </mxCell>
        <mxCell id="Melu5-ksbf7xbnoA28rR-357" value="8/9" style="text;html=1;align=center;verticalAlign=middle;resizable=0;points=[];autosize=1;strokeColor=none;fillColor=none;" parent="1" vertex="1">
          <mxGeometry x="570.5" y="1100" width="40" height="30" as="geometry" />
        </mxCell>
        <mxCell id="Melu5-ksbf7xbnoA28rR-358" value="&lt;font style=&quot;font-size: 18px;&quot;&gt;&lt;b&gt;/&lt;/b&gt;&lt;/font&gt;" style="text;html=1;align=center;verticalAlign=middle;resizable=0;points=[];autosize=1;strokeColor=none;fillColor=none;rotation=15;" parent="1" vertex="1">
          <mxGeometry x="538" y="679" width="30" height="40" as="geometry" />
        </mxCell>
        <mxCell id="Melu5-ksbf7xbnoA28rR-360" value="&lt;font style=&quot;font-size: 18px;&quot;&gt;&lt;b&gt;/&lt;/b&gt;&lt;/font&gt;" style="text;html=1;align=center;verticalAlign=middle;resizable=0;points=[];autosize=1;strokeColor=none;fillColor=none;rotation=15;" parent="1" vertex="1">
          <mxGeometry x="619" y="677" width="30" height="40" as="geometry" />
        </mxCell>
        <mxCell id="Melu5-ksbf7xbnoA28rR-361" value="&lt;font style=&quot;font-size: 18px;&quot;&gt;&lt;b&gt;/&lt;/b&gt;&lt;/font&gt;" style="text;html=1;align=center;verticalAlign=middle;resizable=0;points=[];autosize=1;strokeColor=none;fillColor=none;rotation=15;" parent="1" vertex="1">
          <mxGeometry x="689" y="676" width="30" height="40" as="geometry" />
        </mxCell>
        <mxCell id="Melu5-ksbf7xbnoA28rR-362" value="&lt;font style=&quot;font-size: 18px;&quot;&gt;&lt;b&gt;/&lt;/b&gt;&lt;/font&gt;" style="text;html=1;align=center;verticalAlign=middle;resizable=0;points=[];autosize=1;strokeColor=none;fillColor=none;rotation=15;" parent="1" vertex="1">
          <mxGeometry x="619" y="812" width="30" height="40" as="geometry" />
        </mxCell>
        <mxCell id="Melu5-ksbf7xbnoA28rR-363" value="&lt;font style=&quot;font-size: 18px;&quot;&gt;&lt;b&gt;/&lt;/b&gt;&lt;/font&gt;" style="text;html=1;align=center;verticalAlign=middle;resizable=0;points=[];autosize=1;strokeColor=none;fillColor=none;rotation=15;" parent="1" vertex="1">
          <mxGeometry x="515" y="956" width="30" height="40" as="geometry" />
        </mxCell>
        <mxCell id="Melu5-ksbf7xbnoA28rR-364" value="&lt;font style=&quot;font-size: 18px;&quot;&gt;&lt;b&gt;/&lt;/b&gt;&lt;/font&gt;" style="text;html=1;align=center;verticalAlign=middle;resizable=0;points=[];autosize=1;strokeColor=none;fillColor=none;rotation=15;" parent="1" vertex="1">
          <mxGeometry x="595" y="954" width="30" height="40" as="geometry" />
        </mxCell>
        <mxCell id="Melu5-ksbf7xbnoA28rR-365" value="&lt;font style=&quot;font-size: 18px;&quot;&gt;&lt;b&gt;/&lt;/b&gt;&lt;/font&gt;" style="text;html=1;align=center;verticalAlign=middle;resizable=0;points=[];autosize=1;strokeColor=none;fillColor=none;rotation=15;" parent="1" vertex="1">
          <mxGeometry x="664" y="956" width="30" height="40" as="geometry" />
        </mxCell>
        <mxCell id="Melu5-ksbf7xbnoA28rR-366" value="&lt;font style=&quot;font-size: 18px;&quot;&gt;&lt;b&gt;/&lt;/b&gt;&lt;/font&gt;" style="text;html=1;align=center;verticalAlign=middle;resizable=0;points=[];autosize=1;strokeColor=none;fillColor=none;rotation=15;" parent="1" vertex="1">
          <mxGeometry x="594" y="1097" width="30" height="40" as="geometry" />
        </mxCell>
        <mxCell id="2XI_QCRYdsLdwmr9T4Ws-1" value="NONO_GRAPHICS" style="rounded=0;whiteSpace=wrap;html=1;fontStyle=1;fillColor=#d5e8d4;strokeColor=#82b366;" vertex="1" parent="1">
          <mxGeometry x="1515" y="900" width="230" height="367" as="geometry" />
        </mxCell>
        <mxCell id="2XI_QCRYdsLdwmr9T4Ws-2" value="" style="triangle;whiteSpace=wrap;html=1;" vertex="1" parent="1">
          <mxGeometry x="1515" y="1242" width="20" height="20" as="geometry" />
        </mxCell>
        <mxCell id="2XI_QCRYdsLdwmr9T4Ws-3" value="" style="edgeStyle=none;orthogonalLoop=1;jettySize=auto;html=1;rounded=0;endArrow=none;endFill=0;" edge="1" parent="1">
          <mxGeometry width="100" relative="1" as="geometry">
            <mxPoint x="1495" y="1287" as="sourcePoint" />
            <mxPoint x="1515" y="1251.71" as="targetPoint" />
            <Array as="points">
              <mxPoint x="1495" y="1252" />
            </Array>
          </mxGeometry>
        </mxCell>
        <mxCell id="2XI_QCRYdsLdwmr9T4Ws-4" value="clk" style="text;html=1;align=center;verticalAlign=middle;resizable=0;points=[];autosize=1;strokeColor=none;fillColor=none;" vertex="1" parent="1">
          <mxGeometry x="1455" y="1257" width="40" height="30" as="geometry" />
        </mxCell>
        <mxCell id="2XI_QCRYdsLdwmr9T4Ws-5" style="edgeStyle=orthogonalEdgeStyle;rounded=0;orthogonalLoop=1;jettySize=auto;html=1;startArrow=none;startFill=0;endArrow=none;endFill=0;" edge="1" source="2XI_QCRYdsLdwmr9T4Ws-6" parent="1">
          <mxGeometry relative="1" as="geometry">
            <mxPoint x="1630" y="1317" as="targetPoint" />
          </mxGeometry>
        </mxCell>
        <mxCell id="2XI_QCRYdsLdwmr9T4Ws-6" value="" style="ellipse;whiteSpace=wrap;html=1;" vertex="1" parent="1">
          <mxGeometry x="1625" y="1267" width="10" height="10" as="geometry" />
        </mxCell>
        <mxCell id="2XI_QCRYdsLdwmr9T4Ws-7" value="RESET_L*" style="text;html=1;align=center;verticalAlign=middle;resizable=0;points=[];autosize=1;strokeColor=none;fillColor=none;" vertex="1" parent="1">
          <mxGeometry x="1595" y="1315" width="80" height="30" as="geometry" />
        </mxCell>
        <mxCell id="2XI_QCRYdsLdwmr9T4Ws-8" value="" style="edgeStyle=none;orthogonalLoop=1;jettySize=auto;html=1;rounded=0;" edge="1" parent="1">
          <mxGeometry width="100" relative="1" as="geometry">
            <mxPoint x="1446" y="959" as="sourcePoint" />
            <mxPoint x="1516" y="959" as="targetPoint" />
            <Array as="points" />
          </mxGeometry>
        </mxCell>
        <mxCell id="2XI_QCRYdsLdwmr9T4Ws-9" value="/" style="text;html=1;align=center;verticalAlign=middle;resizable=0;points=[];autosize=1;strokeColor=none;fillColor=none;fontStyle=0;fontSize=16;" vertex="1" parent="1">
          <mxGeometry x="1462" y="944" width="30" height="30" as="geometry" />
        </mxCell>
        <mxCell id="2XI_QCRYdsLdwmr9T4Ws-10" value="3" style="text;html=1;align=center;verticalAlign=middle;resizable=0;points=[];autosize=1;strokeColor=none;fillColor=none;" vertex="1" parent="1">
          <mxGeometry x="1462" y="929" width="30" height="30" as="geometry" />
        </mxCell>
        <mxCell id="2XI_QCRYdsLdwmr9T4Ws-11" value="" style="edgeStyle=none;orthogonalLoop=1;jettySize=auto;html=1;rounded=0;" edge="1" parent="1">
          <mxGeometry width="100" relative="1" as="geometry">
            <mxPoint x="1445" y="989" as="sourcePoint" />
            <mxPoint x="1515" y="989" as="targetPoint" />
            <Array as="points" />
          </mxGeometry>
        </mxCell>
        <mxCell id="2XI_QCRYdsLdwmr9T4Ws-13" value="OUT_CMD" style="text;html=1;align=right;verticalAlign=middle;resizable=0;points=[];autosize=1;strokeColor=none;fillColor=none;" vertex="1" parent="1">
          <mxGeometry x="1360" y="974" width="80" height="30" as="geometry" />
        </mxCell>
        <mxCell id="2XI_QCRYdsLdwmr9T4Ws-14" value="" style="edgeStyle=none;orthogonalLoop=1;jettySize=auto;html=1;rounded=0;" edge="1" parent="1">
          <mxGeometry width="100" relative="1" as="geometry">
            <mxPoint x="1445" y="1061" as="sourcePoint" />
            <mxPoint x="1515" y="1061" as="targetPoint" />
            <Array as="points" />
          </mxGeometry>
        </mxCell>
        <mxCell id="2XI_QCRYdsLdwmr9T4Ws-15" value="DONE_DEL" style="text;html=1;align=right;verticalAlign=middle;resizable=0;points=[];autosize=1;strokeColor=none;fillColor=none;" vertex="1" parent="1">
          <mxGeometry x="1350" y="1046" width="90" height="30" as="geometry" />
        </mxCell>
        <mxCell id="2XI_QCRYdsLdwmr9T4Ws-16" value="COMMAND" style="text;html=1;align=right;verticalAlign=middle;resizable=0;points=[];autosize=1;strokeColor=none;fillColor=none;" vertex="1" parent="1">
          <mxGeometry x="1350" y="944" width="90" height="30" as="geometry" />
        </mxCell>
        <mxCell id="2XI_QCRYdsLdwmr9T4Ws-17" value="" style="edgeStyle=none;orthogonalLoop=1;jettySize=auto;html=1;rounded=0;" edge="1" parent="1">
          <mxGeometry width="100" relative="1" as="geometry">
            <mxPoint x="1445" y="1091" as="sourcePoint" />
            <mxPoint x="1515" y="1091" as="targetPoint" />
            <Array as="points" />
          </mxGeometry>
        </mxCell>
        <mxCell id="2XI_QCRYdsLdwmr9T4Ws-18" value="DONE_FIG" style="text;html=1;align=right;verticalAlign=middle;resizable=0;points=[];autosize=1;strokeColor=none;fillColor=none;" vertex="1" parent="1">
          <mxGeometry x="1360" y="1076" width="80" height="30" as="geometry" />
        </mxCell>
        <mxCell id="2XI_QCRYdsLdwmr9T4Ws-19" value="" style="edgeStyle=none;orthogonalLoop=1;jettySize=auto;html=1;rounded=0;" edge="1" parent="1">
          <mxGeometry width="100" relative="1" as="geometry">
            <mxPoint x="1446" y="1137" as="sourcePoint" />
            <mxPoint x="1516" y="1137" as="targetPoint" />
            <Array as="points" />
          </mxGeometry>
        </mxCell>
        <mxCell id="2XI_QCRYdsLdwmr9T4Ws-20" value="/" style="text;html=1;align=center;verticalAlign=middle;resizable=0;points=[];autosize=1;strokeColor=none;fillColor=none;fontStyle=0;fontSize=16;" vertex="1" parent="1">
          <mxGeometry x="1462" y="1122" width="30" height="30" as="geometry" />
        </mxCell>
        <mxCell id="2XI_QCRYdsLdwmr9T4Ws-21" value="4" style="text;html=1;align=center;verticalAlign=middle;resizable=0;points=[];autosize=1;strokeColor=none;fillColor=none;" vertex="1" parent="1">
          <mxGeometry x="1462" y="1107" width="30" height="30" as="geometry" />
        </mxCell>
        <mxCell id="2XI_QCRYdsLdwmr9T4Ws-22" value="CURSOR_POSX" style="text;html=1;align=right;verticalAlign=middle;resizable=0;points=[];autosize=1;strokeColor=none;fillColor=none;" vertex="1" parent="1">
          <mxGeometry x="1320" y="1122" width="120" height="30" as="geometry" />
        </mxCell>
        <mxCell id="2XI_QCRYdsLdwmr9T4Ws-23" value="" style="edgeStyle=none;orthogonalLoop=1;jettySize=auto;html=1;rounded=0;" edge="1" parent="1">
          <mxGeometry width="100" relative="1" as="geometry">
            <mxPoint x="1445" y="1167" as="sourcePoint" />
            <mxPoint x="1515" y="1167" as="targetPoint" />
            <Array as="points" />
          </mxGeometry>
        </mxCell>
        <mxCell id="2XI_QCRYdsLdwmr9T4Ws-24" value="/" style="text;html=1;align=center;verticalAlign=middle;resizable=0;points=[];autosize=1;strokeColor=none;fillColor=none;fontStyle=0;fontSize=16;" vertex="1" parent="1">
          <mxGeometry x="1461" y="1152" width="30" height="30" as="geometry" />
        </mxCell>
        <mxCell id="2XI_QCRYdsLdwmr9T4Ws-25" value="4" style="text;html=1;align=center;verticalAlign=middle;resizable=0;points=[];autosize=1;strokeColor=none;fillColor=none;" vertex="1" parent="1">
          <mxGeometry x="1461" y="1137" width="30" height="30" as="geometry" />
        </mxCell>
        <mxCell id="2XI_QCRYdsLdwmr9T4Ws-26" value="CURSOR_POSY" style="text;html=1;align=right;verticalAlign=middle;resizable=0;points=[];autosize=1;strokeColor=none;fillColor=none;" vertex="1" parent="1">
          <mxGeometry x="1320" y="1152" width="120" height="30" as="geometry" />
        </mxCell>
        <mxCell id="2XI_QCRYdsLdwmr9T4Ws-27" value="" style="edgeStyle=none;orthogonalLoop=1;jettySize=auto;html=1;rounded=0;" edge="1" parent="1">
          <mxGeometry width="100" relative="1" as="geometry">
            <mxPoint x="1445" y="1197" as="sourcePoint" />
            <mxPoint x="1515" y="1197" as="targetPoint" />
            <Array as="points" />
          </mxGeometry>
        </mxCell>
        <mxCell id="2XI_QCRYdsLdwmr9T4Ws-28" value="UPDATE_CURSOR" style="text;html=1;align=right;verticalAlign=middle;resizable=0;points=[];autosize=1;strokeColor=none;fillColor=none;" vertex="1" parent="1">
          <mxGeometry x="1310" y="1182" width="130" height="30" as="geometry" />
        </mxCell>
        <mxCell id="2XI_QCRYdsLdwmr9T4Ws-29" value="" style="edgeStyle=none;orthogonalLoop=1;jettySize=auto;html=1;rounded=0;" edge="1" parent="1">
          <mxGeometry width="100" relative="1" as="geometry">
            <mxPoint x="1445" y="1227" as="sourcePoint" />
            <mxPoint x="1515" y="1227" as="targetPoint" />
            <Array as="points" />
          </mxGeometry>
        </mxCell>
        <mxCell id="2XI_QCRYdsLdwmr9T4Ws-30" value="TOGGLE_CURSOR" style="text;html=1;align=right;verticalAlign=middle;resizable=0;points=[];autosize=1;strokeColor=none;fillColor=none;" vertex="1" parent="1">
          <mxGeometry x="1310" y="1212" width="130" height="30" as="geometry" />
        </mxCell>
        <mxCell id="2XI_QCRYdsLdwmr9T4Ws-31" value="" style="edgeStyle=none;orthogonalLoop=1;jettySize=auto;html=1;rounded=0;" edge="1" parent="1">
          <mxGeometry width="100" relative="1" as="geometry">
            <mxPoint x="1445" y="1012" as="sourcePoint" />
            <mxPoint x="1515" y="1012" as="targetPoint" />
            <Array as="points" />
          </mxGeometry>
        </mxCell>
        <mxCell id="2XI_QCRYdsLdwmr9T4Ws-32" value="NONO_INI" style="text;html=1;align=right;verticalAlign=middle;resizable=0;points=[];autosize=1;strokeColor=none;fillColor=none;" vertex="1" parent="1">
          <mxGeometry x="1360" y="997" width="80" height="30" as="geometry" />
        </mxCell>
        <mxCell id="2XI_QCRYdsLdwmr9T4Ws-33" value="" style="edgeStyle=none;orthogonalLoop=1;jettySize=auto;html=1;rounded=0;" edge="1" parent="1">
          <mxGeometry width="100" relative="1" as="geometry">
            <mxPoint x="1745" y="1188" as="sourcePoint" />
            <mxPoint x="1815" y="1188" as="targetPoint" />
            <Array as="points" />
          </mxGeometry>
        </mxCell>
        <mxCell id="2XI_QCRYdsLdwmr9T4Ws-34" value="NONO_INIT_DONE" style="text;html=1;align=left;verticalAlign=middle;resizable=0;points=[];autosize=1;strokeColor=none;fillColor=none;" vertex="1" parent="1">
          <mxGeometry x="1819" y="1171" width="130" height="30" as="geometry" />
        </mxCell>
        <mxCell id="2XI_QCRYdsLdwmr9T4Ws-35" value="" style="edgeStyle=none;orthogonalLoop=1;jettySize=auto;html=1;rounded=0;" edge="1" parent="1">
          <mxGeometry width="100" relative="1" as="geometry">
            <mxPoint x="1745" y="935" as="sourcePoint" />
            <mxPoint x="1815" y="935" as="targetPoint" />
            <Array as="points" />
          </mxGeometry>
        </mxCell>
        <mxCell id="2XI_QCRYdsLdwmr9T4Ws-36" value="DRAW_LINE" style="text;html=1;align=left;verticalAlign=middle;resizable=0;points=[];autosize=1;strokeColor=none;fillColor=none;" vertex="1" parent="1">
          <mxGeometry x="1819" y="919" width="90" height="30" as="geometry" />
        </mxCell>
        <mxCell id="2XI_QCRYdsLdwmr9T4Ws-37" value="" style="edgeStyle=none;orthogonalLoop=1;jettySize=auto;html=1;rounded=0;" edge="1" parent="1">
          <mxGeometry width="100" relative="1" as="geometry">
            <mxPoint x="1745" y="987" as="sourcePoint" />
            <mxPoint x="1815" y="987" as="targetPoint" />
            <Array as="points" />
          </mxGeometry>
        </mxCell>
        <mxCell id="2XI_QCRYdsLdwmr9T4Ws-38" value="DRAW_CUAD" style="text;html=1;align=left;verticalAlign=middle;resizable=0;points=[];autosize=1;strokeColor=none;fillColor=none;" vertex="1" parent="1">
          <mxGeometry x="1819" y="972" width="100" height="30" as="geometry" />
        </mxCell>
        <mxCell id="2XI_QCRYdsLdwmr9T4Ws-39" value="" style="edgeStyle=none;orthogonalLoop=1;jettySize=auto;html=1;rounded=0;" edge="1" parent="1">
          <mxGeometry width="100" relative="1" as="geometry">
            <mxPoint x="1745" y="1016" as="sourcePoint" />
            <mxPoint x="1815" y="1016" as="targetPoint" />
            <Array as="points" />
          </mxGeometry>
        </mxCell>
        <mxCell id="2XI_QCRYdsLdwmr9T4Ws-40" value="DRAW_TRIA" style="text;html=1;align=left;verticalAlign=middle;resizable=0;points=[];autosize=1;strokeColor=none;fillColor=none;" vertex="1" parent="1">
          <mxGeometry x="1819" y="999" width="90" height="30" as="geometry" />
        </mxCell>
        <mxCell id="2XI_QCRYdsLdwmr9T4Ws-41" value="" style="edgeStyle=none;orthogonalLoop=1;jettySize=auto;html=1;rounded=0;" edge="1" parent="1">
          <mxGeometry width="100" relative="1" as="geometry">
            <mxPoint x="1745" y="1050" as="sourcePoint" />
            <mxPoint x="1815" y="1050" as="targetPoint" />
            <Array as="points" />
          </mxGeometry>
        </mxCell>
        <mxCell id="2XI_QCRYdsLdwmr9T4Ws-42" value="/" style="text;html=1;align=center;verticalAlign=middle;resizable=0;points=[];autosize=1;strokeColor=none;fillColor=none;fontStyle=0;fontSize=16;" vertex="1" parent="1">
          <mxGeometry x="1761" y="1035" width="30" height="30" as="geometry" />
        </mxCell>
        <mxCell id="2XI_QCRYdsLdwmr9T4Ws-43" value="7" style="text;html=1;align=center;verticalAlign=middle;resizable=0;points=[];autosize=1;strokeColor=none;fillColor=none;" vertex="1" parent="1">
          <mxGeometry x="1761" y="1020" width="30" height="30" as="geometry" />
        </mxCell>
        <mxCell id="2XI_QCRYdsLdwmr9T4Ws-44" value="XCOOR" style="text;html=1;align=left;verticalAlign=middle;resizable=0;points=[];autosize=1;strokeColor=none;fillColor=none;" vertex="1" parent="1">
          <mxGeometry x="1819" y="1035" width="70" height="30" as="geometry" />
        </mxCell>
        <mxCell id="2XI_QCRYdsLdwmr9T4Ws-45" value="" style="edgeStyle=none;orthogonalLoop=1;jettySize=auto;html=1;rounded=0;" edge="1" parent="1">
          <mxGeometry width="100" relative="1" as="geometry">
            <mxPoint x="1745" y="1084" as="sourcePoint" />
            <mxPoint x="1815" y="1084" as="targetPoint" />
            <Array as="points" />
          </mxGeometry>
        </mxCell>
        <mxCell id="2XI_QCRYdsLdwmr9T4Ws-46" value="/" style="text;html=1;align=center;verticalAlign=middle;resizable=0;points=[];autosize=1;strokeColor=none;fillColor=none;fontStyle=0;fontSize=16;" vertex="1" parent="1">
          <mxGeometry x="1761" y="1069" width="30" height="30" as="geometry" />
        </mxCell>
        <mxCell id="2XI_QCRYdsLdwmr9T4Ws-47" value="8" style="text;html=1;align=center;verticalAlign=middle;resizable=0;points=[];autosize=1;strokeColor=none;fillColor=none;" vertex="1" parent="1">
          <mxGeometry x="1761" y="1054" width="30" height="30" as="geometry" />
        </mxCell>
        <mxCell id="2XI_QCRYdsLdwmr9T4Ws-48" value="YCOOR" style="text;html=1;align=left;verticalAlign=middle;resizable=0;points=[];autosize=1;strokeColor=none;fillColor=none;" vertex="1" parent="1">
          <mxGeometry x="1819" y="1069" width="70" height="30" as="geometry" />
        </mxCell>
        <mxCell id="2XI_QCRYdsLdwmr9T4Ws-52" value="" style="edgeStyle=none;orthogonalLoop=1;jettySize=auto;html=1;rounded=0;" edge="1" parent="1">
          <mxGeometry width="100" relative="1" as="geometry">
            <mxPoint x="1745" y="909" as="sourcePoint" />
            <mxPoint x="1815" y="909" as="targetPoint" />
            <Array as="points" />
          </mxGeometry>
        </mxCell>
        <mxCell id="2XI_QCRYdsLdwmr9T4Ws-53" value="DEL_SCREEN" style="text;html=1;align=left;verticalAlign=middle;resizable=0;points=[];autosize=1;strokeColor=none;fillColor=none;" vertex="1" parent="1">
          <mxGeometry x="1819" y="892" width="100" height="30" as="geometry" />
        </mxCell>
        <mxCell id="2XI_QCRYdsLdwmr9T4Ws-54" value="" style="edgeStyle=none;orthogonalLoop=1;jettySize=auto;html=1;rounded=0;" edge="1" parent="1">
          <mxGeometry width="100" relative="1" as="geometry">
            <mxPoint x="1745" y="1218" as="sourcePoint" />
            <mxPoint x="1815" y="1218" as="targetPoint" />
            <Array as="points" />
          </mxGeometry>
        </mxCell>
        <mxCell id="2XI_QCRYdsLdwmr9T4Ws-55" value="DONE_UPDATE" style="text;html=1;align=left;verticalAlign=middle;resizable=0;points=[];autosize=1;strokeColor=none;fillColor=none;" vertex="1" parent="1">
          <mxGeometry x="1819" y="1201" width="110" height="30" as="geometry" />
        </mxCell>
        <mxCell id="2XI_QCRYdsLdwmr9T4Ws-56" value="" style="edgeStyle=none;orthogonalLoop=1;jettySize=auto;html=1;rounded=0;" edge="1" parent="1">
          <mxGeometry width="100" relative="1" as="geometry">
            <mxPoint x="1745" y="1254" as="sourcePoint" />
            <mxPoint x="1815" y="1254" as="targetPoint" />
            <Array as="points" />
          </mxGeometry>
        </mxCell>
        <mxCell id="2XI_QCRYdsLdwmr9T4Ws-57" value="DONE_TOGGLE" style="text;html=1;align=left;verticalAlign=middle;resizable=0;points=[];autosize=1;strokeColor=none;fillColor=none;" vertex="1" parent="1">
          <mxGeometry x="1819" y="1237" width="110" height="30" as="geometry" />
        </mxCell>
        <mxCell id="2XI_QCRYdsLdwmr9T4Ws-58" value="TO LCD_DRAWING" style="whiteSpace=wrap;html=1;rotation=-90;fillColor=#f5f5f5;strokeColor=#666666;fontColor=#333333;" vertex="1" parent="1">
          <mxGeometry x="1855.25" y="986.25" width="219.5" height="40" as="geometry" />
        </mxCell>
        <mxCell id="2XI_QCRYdsLdwmr9T4Ws-59" value="TO NONO_CURSOR" style="whiteSpace=wrap;html=1;rotation=-90;fillColor=#f5f5f5;strokeColor=#666666;fontColor=#333333;" vertex="1" parent="1">
          <mxGeometry x="1915" y="1196" width="100" height="40" as="geometry" />
        </mxCell>
        <mxCell id="2XI_QCRYdsLdwmr9T4Ws-60" value="FROM LCD_DRAWING" style="whiteSpace=wrap;html=1;rotation=-90;fillColor=#f5f5f5;strokeColor=#666666;fontColor=#333333;" vertex="1" parent="1">
          <mxGeometry x="1235" y="1035" width="95" height="78" as="geometry" />
        </mxCell>
        <mxCell id="2XI_QCRYdsLdwmr9T4Ws-61" value="FROM&lt;br&gt;CMD_PROCESS" style="whiteSpace=wrap;html=1;rotation=-90;fillColor=#f5f5f5;strokeColor=#666666;fontColor=#333333;" vertex="1" parent="1">
          <mxGeometry x="1235" y="937" width="95" height="78" as="geometry" />
        </mxCell>
        <mxCell id="2XI_QCRYdsLdwmr9T4Ws-62" value="FROM NONO_CURSOR" style="whiteSpace=wrap;html=1;rotation=-90;fillColor=#f5f5f5;strokeColor=#666666;fontColor=#333333;" vertex="1" parent="1">
          <mxGeometry x="1222.5" y="1149.5" width="120" height="78" as="geometry" />
        </mxCell>
        <mxCell id="2XI_QCRYdsLdwmr9T4Ws-68" value="" style="edgeStyle=none;orthogonalLoop=1;jettySize=auto;html=1;rounded=0;" edge="1" parent="1">
          <mxGeometry width="100" relative="1" as="geometry">
            <mxPoint x="1745" y="1115" as="sourcePoint" />
            <mxPoint x="1815" y="1115" as="targetPoint" />
            <Array as="points" />
          </mxGeometry>
        </mxCell>
        <mxCell id="2XI_QCRYdsLdwmr9T4Ws-69" value="/" style="text;html=1;align=center;verticalAlign=middle;resizable=0;points=[];autosize=1;strokeColor=none;fillColor=none;fontStyle=0;fontSize=16;" vertex="1" parent="1">
          <mxGeometry x="1761" y="1100" width="30" height="30" as="geometry" />
        </mxCell>
        <mxCell id="2XI_QCRYdsLdwmr9T4Ws-70" value="3" style="text;html=1;align=center;verticalAlign=middle;resizable=0;points=[];autosize=1;strokeColor=none;fillColor=none;" vertex="1" parent="1">
          <mxGeometry x="1761" y="1085" width="30" height="30" as="geometry" />
        </mxCell>
        <mxCell id="2XI_QCRYdsLdwmr9T4Ws-71" value="COLOUR_CODE" style="text;html=1;align=left;verticalAlign=middle;resizable=0;points=[];autosize=1;strokeColor=none;fillColor=none;" vertex="1" parent="1">
          <mxGeometry x="1819" y="1100" width="120" height="30" as="geometry" />
        </mxCell>
        <mxCell id="2XI_QCRYdsLdwmr9T4Ws-72" value="" style="edgeStyle=none;orthogonalLoop=1;jettySize=auto;html=1;rounded=0;" edge="1" parent="1">
          <mxGeometry width="100" relative="1" as="geometry">
            <mxPoint x="1745" y="962" as="sourcePoint" />
            <mxPoint x="1815" y="962" as="targetPoint" />
            <Array as="points" />
          </mxGeometry>
        </mxCell>
        <mxCell id="2XI_QCRYdsLdwmr9T4Ws-73" value="VERTICAL" style="text;html=1;align=left;verticalAlign=middle;resizable=0;points=[];autosize=1;strokeColor=none;fillColor=none;" vertex="1" parent="1">
          <mxGeometry x="1819" y="946" width="80" height="30" as="geometry" />
        </mxCell>
        <mxCell id="2XI_QCRYdsLdwmr9T4Ws-75" value="" style="edgeStyle=none;orthogonalLoop=1;jettySize=auto;html=1;rounded=0;" edge="1" parent="1">
          <mxGeometry width="100" relative="1" as="geometry">
            <mxPoint x="1745" y="1154" as="sourcePoint" />
            <mxPoint x="1815" y="1154" as="targetPoint" />
            <Array as="points" />
          </mxGeometry>
        </mxCell>
        <mxCell id="2XI_QCRYdsLdwmr9T4Ws-76" value="DONE_BIT" style="text;html=1;align=left;verticalAlign=middle;resizable=0;points=[];autosize=1;strokeColor=none;fillColor=none;" vertex="1" parent="1">
          <mxGeometry x="1819" y="1137" width="80" height="30" as="geometry" />
        </mxCell>
      </root>
    </mxGraphModel>
  </diagram>
</mxfile>
